<svg width="93" height="94" viewBox="0 0 93 94" fill="none" xmlns="http://www.w3.org/2000/svg">
<path d="M41.5697 120.04C39.5012 119.307 37.7543 117.439 36.2882 114.918C34.8279 112.407 33.6865 109.318 32.7968 106.257C31.9082 103.2 31.2767 100.194 30.8284 97.8568C30.6854 97.111 30.562 96.4387 30.4543 95.8524C30.3927 95.517 30.3363 95.2097 30.2844 94.9328C30.2377 94.6841 30.1945 94.4599 30.1548 94.2642L44.3458 97.5905L44.3651 97.6672C44.4253 97.9059 44.5122 98.249 44.6195 98.6673C44.834 99.5038 45.1298 100.642 45.455 101.847C46.0999 104.236 46.8761 106.951 47.3624 108.059C47.5625 108.514 47.8313 109.702 47.9703 111.224C48.1078 112.728 48.1118 114.492 47.8203 116.079C47.5261 117.681 46.9473 119.017 45.9939 119.777C45.0762 120.508 43.6962 120.793 41.5697 120.04Z" fill="white" stroke="#303051"/>
<path d="M18.5446 70.0864C18.6003 70.0242 18.6498 69.9696 18.6924 69.9229C18.8446 69.9516 19.0586 69.9931 19.3248 70.0472C19.897 70.1636 20.7102 70.3385 21.6718 70.5723C23.5975 71.0405 26.1074 71.7422 28.4659 72.6785C30.8392 73.6207 32.9959 74.7764 34.2706 76.1251C34.9023 76.7934 35.2925 77.4829 35.4102 78.1932C35.5264 78.8941 35.3871 79.6726 34.8547 80.5476C30.6907 87.3354 25.3312 89.1664 20.9008 88.7152C18.6691 88.4879 16.6581 87.6805 15.1337 86.6127C13.5985 85.5373 12.607 84.2351 12.3229 83.048C12.0331 81.8368 12.2554 80.4104 12.805 78.9085C13.3521 77.4136 14.2045 75.8952 15.1079 74.5269C16.0098 73.1609 16.953 71.9587 17.6716 71.0972C18.0306 70.6668 18.3328 70.3225 18.5446 70.0864Z" fill="#B0F7FF" stroke="#303051"/>
<path d="M73.571 69.9182C73.6145 69.9659 73.6654 70.0221 73.723 70.0864C73.9348 70.3225 74.237 70.6668 74.596 71.0972C75.3146 71.9587 76.2578 73.1609 77.1597 74.5269C78.0631 75.8952 78.9155 77.4136 79.4626 78.9085C80.0122 80.4104 80.2346 81.8368 79.9447 83.048C79.6787 84.1595 78.5095 85.2436 76.6268 86.0646C74.7743 86.8724 72.3546 87.3673 69.8305 87.3811C64.7554 87.4089 59.4786 85.5065 57.448 80.6165C57.0542 79.6661 57.0067 78.8169 57.2007 78.0484C57.3965 77.2731 57.8479 76.543 58.5104 75.8565C59.8451 74.4733 61.9679 73.337 64.2596 72.4371C66.5395 71.5418 68.9328 70.9007 70.7614 70.4831C71.6744 70.2746 72.4438 70.1224 72.9843 70.0224C73.23 69.977 73.4282 69.9424 73.571 69.9182Z" fill="#B0F7FF" stroke="#303051"/>
<path d="M61.5411 75.1895C61.7822 75.2903 61.9672 75.3717 62.0918 75.4277C62.1232 75.5225 62.1648 75.6507 62.2141 75.8095C62.3321 76.1892 62.4947 76.7441 62.6712 77.44C63.0243 78.8326 63.4321 80.7853 63.6508 83.0241C64.0897 87.5164 63.7599 93.085 60.7879 97.6098L60.7877 97.6099C59.96 98.8713 58.6681 99.8245 57.1539 100.541C55.6413 101.256 53.9359 101.721 52.3226 102.021C50.7114 102.32 49.2075 102.452 48.1055 102.51C47.555 102.538 47.1061 102.548 46.7959 102.551C46.6408 102.552 46.5205 102.552 46.4396 102.551C46.3991 102.55 46.3685 102.55 46.3483 102.55L46.3259 102.549L46.3208 102.549L46.3197 102.549L46.3197 102.549L46.3195 102.549L46.3068 102.549L46.2941 102.549L46.294 102.549L46.294 102.549L46.2929 102.549L46.2877 102.549L46.2653 102.55C46.2452 102.55 46.2145 102.55 46.1741 102.551C46.0931 102.552 45.9728 102.552 45.8177 102.551C45.5075 102.548 45.0587 102.538 44.5082 102.51C43.4061 102.452 41.9022 102.32 40.2911 102.021C38.6778 101.721 36.9724 101.256 35.4597 100.541C33.9455 99.8245 32.6536 98.8713 31.8259 97.6099L31.8258 97.6098C28.8538 93.085 28.524 87.5164 28.9628 83.0241C29.1815 80.7853 29.5893 78.8326 29.9425 77.44C30.119 76.7441 30.2815 76.1892 30.3995 75.8095C30.4515 75.6421 30.4949 75.5089 30.5269 75.4127C38.0191 71.4911 45.9152 71.4913 51.9817 72.494C55.0357 72.9988 57.6158 73.7562 59.4312 74.387C60.3386 74.7023 61.0541 74.9857 61.5411 75.1895Z" fill="white" stroke="#303051"/>
<path d="M46.9864 79.8105C34.5061 79.8105 30.7652 80.7789 28.5078 82.3283C28.9915 78.132 30.088 75.0978 30.088 75.0978C45.4384 66.9313 62.498 75.0978 62.498 75.0978C62.498 75.0978 64.8845 81.7795 64.175 88.9777C62.4658 84.4264 58.08 79.8105 46.9864 79.8105Z" fill="#CDFBFF"/>
<path d="M11.2386 45.0121C11.2386 47.4992 10.6047 49.7276 9.60232 51.3183C8.59627 52.9149 7.26602 53.8084 5.86928 53.8084C4.48951 53.8084 3.15883 52.9159 2.14788 51.3176C1.14139 49.7263 0.5 47.4979 0.5 45.0121C0.5 42.525 1.1339 40.2966 2.13624 38.7059C3.14229 37.1093 4.47254 36.2158 5.86928 36.2158C7.24905 36.2158 8.57973 37.1083 9.59068 38.7066C10.5972 40.2979 11.2386 42.5263 11.2386 45.0121Z" fill="#4C4CE8" stroke="#303051"/>
<path d="M86.9728 53.8089C85.5761 53.8089 84.2458 52.9154 83.2398 51.3188C82.2374 49.7281 81.6035 47.4997 81.6035 45.0126C81.6035 42.5255 82.2374 40.2971 83.2398 38.7064C84.2458 37.1098 85.5761 36.2163 86.9728 36.2163C88.3695 36.2163 89.6998 37.1098 90.7058 38.7064C91.7082 40.2971 92.3421 42.5255 92.3421 45.0126C92.3421 47.4997 91.7082 49.7281 90.7058 51.3188C89.6998 52.9154 88.3695 53.8089 86.9728 53.8089Z" fill="#4C4CE8" stroke="#303051"/>
<path d="M84.0931 62.5428L84.0923 62.5441C79.8282 69.668 66.4221 77.7948 46.4032 77.7948C26.3864 77.7948 13.0097 69.6369 8.7128 62.5419C6.56626 58.9813 4.6907 51.8117 4.84261 44.0972C4.99438 36.3897 7.16727 28.2547 12.9845 22.6845C24.1184 12.0513 40.3494 12.2111 45.5622 12.2625C45.8718 12.2655 46.1425 12.2682 46.371 12.2682C46.6016 12.2682 46.8744 12.2655 47.1861 12.2625C52.4275 12.2111 68.6549 12.0522 79.7574 22.6845C85.5914 28.2714 87.7799 36.4072 87.9437 44.1101C88.1076 51.821 86.2397 58.9827 84.0931 62.5428Z" fill="white" stroke="#303051"/>
<path d="M70.3543 55.7167H70.322V56.2167C70.322 60.6872 66.7066 64.3351 62.2116 64.3351H30.1886C25.7233 64.3351 22.0781 60.717 22.0781 56.2167V33.8152C22.0781 29.3447 25.6935 25.6968 30.1886 25.6968H62.2439C66.7091 25.6968 70.3543 29.3149 70.3543 33.8152V55.7167Z" fill="#222299" stroke="#303051"/>
<path d="M30.1818 63.537C26.1507 63.537 22.8613 60.2446 22.8613 56.2097V33.8082C22.8613 29.7734 26.1507 26.481 30.1818 26.481H62.2371C66.2682 26.481 69.5576 29.7734 69.5576 33.8082V56.2097C69.5576 60.2446 66.2682 63.537 62.2371 63.537H30.1818Z" fill="#4C4CE8"/>
<path d="M46.3053 54.232L46.3053 54.232L46.3002 54.2324C45.4942 54.2921 44.9763 54.1666 44.644 53.9899C44.3183 53.8168 44.1325 53.5746 44.0223 53.3211C43.9122 53.068 43.8762 52.7986 43.8716 52.5782C43.8891 52.5769 43.907 52.5756 43.9254 52.5742C44.2289 52.5519 44.6628 52.5251 45.1814 52.5072C46.107 52.4752 47.2941 52.4721 48.4881 52.5719C48.4716 52.7423 48.4303 52.9448 48.3399 53.1465C48.2335 53.3838 48.057 53.6258 47.7562 53.8219C47.4528 54.0196 46.9963 54.1879 46.3053 54.232ZM48.4873 52.1923C48.4873 52.1919 48.4873 52.1919 48.4873 52.1921L48.4873 52.1923Z" fill="url(#paint0_linear_9243_143567)" stroke="#303051"/>
<path d="M29.4115 28.4205C26.7026 28.8401 24.671 31.2933 24.3807 33.1655C24.0582 35.199 24.671 38.0719 26.9606 36.4579C28.3796 35.4573 29.1213 32.3908 33.5716 30.7123C36.99 29.4211 33.8941 27.7104 29.4115 28.4205Z" fill="white"/>
<path d="M43.4689 51.4377C43.4689 51.4377 46.3068 51.1472 49.048 51.4377C49.048 51.4377 49.435 53.8586 46.4036 54.0523C42.9207 54.3105 43.4689 51.4377 43.4689 51.4377Z" fill="url(#paint1_linear_9243_143567)"/>
<path d="M40.2767 49.6308L32.0855 49.4049C31.5372 49.4049 31.118 48.9529 31.1503 48.4042C31.1503 47.8555 31.6017 47.4681 32.15 47.4681L37.4065 47.6295L31.2793 42.7554C30.86 42.4326 30.7955 41.8193 31.118 41.3997C31.4405 40.9801 32.0532 40.9155 32.4725 41.2383L40.8572 47.92C41.1796 48.1783 41.3086 48.6302 41.1796 49.0175C41.0506 49.4049 40.6959 49.6308 40.2767 49.6308Z" fill="url(#paint2_linear_9243_143567)"/>
<path d="M52.3091 49.6284C51.8898 49.6284 51.5351 49.3702 51.4061 48.9828C51.2771 48.5955 51.3739 48.1436 51.7286 47.8854L60.1133 41.2037C60.5325 40.8809 61.1453 40.9454 61.4677 41.365C61.7902 41.7847 61.7257 42.398 61.3065 42.7208L55.1792 47.5948L60.468 47.4657C60.984 47.4657 61.4355 47.8854 61.4677 48.4018C61.4677 48.9506 61.0485 49.3702 60.5325 49.4025L52.3091 49.6284C52.3413 49.6284 52.3413 49.6284 52.3091 49.6284Z" fill="url(#paint3_linear_9243_143567)"/>
<path d="M30.5726 16.2288C30.5709 16.2279 30.5691 16.227 30.5674 16.2261L32.7822 8.00879H59.9126L62.1571 16.2267C62.1558 16.2274 62.1544 16.2281 62.1531 16.2288C61.9202 16.3482 61.5768 16.5196 61.1383 16.7258C60.2609 17.1383 59.0041 17.6889 57.491 18.2397C54.4585 19.3434 50.4249 20.4368 46.3629 20.4368C42.3008 20.4368 38.2672 19.3434 35.2347 18.2397C33.7216 17.6889 32.4648 17.1383 31.5874 16.7258C31.1489 16.5196 30.8055 16.3482 30.5726 16.2288Z" fill="#303051" stroke="#303051"/>
<path d="M28.6113 6.79695V5.85581L46.1707 2.78007L63.73 5.85581V6.79695L46.1707 10.1238L28.6113 6.79695Z" fill="#303051" stroke="#303051"/>
<path d="M62.0109 5.35018L46.1707 8.35131L30.3304 5.35018L46.1707 1.01836L62.0109 5.35018Z" fill="#3C3C68" stroke="#303051"/>
<path d="M28.4353 7.21533C28.4353 7.21533 24.1785 15.2205 20.2441 18.7066" stroke="#303051" stroke-miterlimit="10"/>
<path d="M19.8238 22.1218C19.642 22.3165 19.4804 22.4833 19.3512 22.614L16.6254 20.2682C16.7235 20.1558 16.8424 20.0222 16.9789 19.874C17.3973 19.4197 17.9755 18.8335 18.622 18.2956C19.2736 17.7534 19.9684 17.2824 20.6198 17.0324C21.2697 16.7831 21.7939 16.7819 22.2028 17.0344C22.3941 17.1587 22.4872 17.3025 22.53 17.4634C22.5769 17.6392 22.5726 17.8728 22.4956 18.1712C22.3396 18.776 21.9242 19.5022 21.3997 20.2293C20.8825 20.9463 20.2901 21.6223 19.8238 22.1218Z" fill="#3C3C68" stroke="#303051"/>
<path d="M70.888 65.0785C70.9386 64.781 71.0122 64.3793 71.1118 63.9076C71.3321 62.8651 71.6777 61.49 72.18 60.1433C72.6851 58.7892 73.3345 57.5029 74.1447 56.6077C74.9448 55.7236 75.8583 55.2617 76.9399 55.4157C77.4966 55.4996 77.8793 55.7 78.1474 55.9617C78.4186 56.2264 78.6052 56.5858 78.7129 57.0381C78.9327 57.9611 78.803 59.1817 78.4938 60.4515C78.1881 61.707 77.7232 62.9469 77.3316 63.8782C77.1363 64.3425 76.9605 64.7272 76.8338 64.9951C76.8098 65.0459 76.7875 65.0925 76.7673 65.1346L70.888 65.0785Z" fill="#4C4CE8" stroke="#303051"/>
<path d="M81.1109 67.5732C81.113 67.5754 81.1149 67.5775 81.1168 67.5796L70.0934 69.9491L70.0936 69.949L70.0936 69.9489L71.005 69.4421L70.0384 69.0491C69.9703 69.0214 69.8052 68.8763 69.6562 68.5099C69.5181 68.1702 69.4328 67.7294 69.4469 67.2763C69.4749 66.3726 69.8777 65.5394 70.8913 65.2478L70.8913 65.2478L70.895 65.2467C74.194 64.27 76.7588 64.8764 78.4975 65.714C79.3707 66.1347 80.0388 66.6156 80.4867 66.9895C80.7105 67.1762 80.8785 67.3356 80.989 67.4464C81.0442 67.5018 81.0849 67.5449 81.1109 67.5732Z" fill="#4C4CE8" stroke="#303051"/>
<path d="M79.5223 73.542C79.3933 73.0578 78.1033 71.1857 75.7169 70.185C73.2983 69.1844 69.8477 69.5072 69.8477 69.5072" stroke="#303051" stroke-miterlimit="10" stroke-linecap="round" stroke-linejoin="round"/>
<path d="M77.9764 78.0639C77.8474 77.5797 75.1707 75.4816 73.3648 75.062C70.3012 74.3196 68.334 75.1588 68.334 75.1588" stroke="#303051" stroke-miterlimit="10" stroke-linecap="round" stroke-linejoin="round"/>
<path d="M76.3975 81.6455C76.3975 81.6455 70.4638 77.3524 67.7871 79.3214" stroke="#303051" stroke-miterlimit="10" stroke-linecap="round" stroke-linejoin="round"/>
<path d="M77.3659 65.1499C77.1724 65.0207 72.3673 63.7942 70.7227 64.7625" stroke="#303051" stroke-miterlimit="10" stroke-linecap="round" stroke-linejoin="round"/>
<path d="M21.0185 65.078L15.1392 65.1341C15.119 65.092 15.0967 65.0454 15.0727 64.9946C14.9461 64.7267 14.7702 64.342 14.575 63.8777C14.1833 62.9464 13.7184 61.7065 13.4127 60.451C13.1035 59.1812 12.9738 57.9606 13.1936 57.0376C13.3013 56.5854 13.4879 56.2259 13.7591 55.9612C14.0272 55.6995 14.4099 55.4991 14.9666 55.4152C16.0482 55.2612 16.9617 55.7231 17.7618 56.6072C18.572 57.5024 19.2214 58.7887 19.7265 60.1428C20.2288 61.4895 20.5744 62.8646 20.7947 63.9071C20.8943 64.3788 20.9679 64.7805 21.0185 65.078Z" fill="#4C4CE8" stroke="#303051"/>
<path d="M21.0114 65.2462L21.0151 65.2473C22.0287 65.539 22.4316 66.3721 22.4596 67.2758C22.4736 67.7289 22.3884 68.1697 22.2502 68.5094C22.1013 68.8758 21.9361 69.0209 21.868 69.0486L20.9014 69.4416L21.8128 69.9484L21.8129 69.9485L21.8131 69.9486L21.8134 69.9487L21.8139 69.9491L21.8209 69.953C21.8277 69.9569 21.8385 69.9632 21.8531 69.9718C21.8822 69.989 21.9261 70.0156 21.9818 70.051C22.0934 70.1218 22.2514 70.2274 22.4323 70.3636C22.7976 70.6386 23.2398 71.0263 23.5858 71.4923C23.9325 71.9592 24.1585 72.4714 24.1549 73.0081C24.1514 73.5318 23.9288 74.1605 23.2183 74.8717L22.7967 75.2937L23.2843 75.634L23.2846 75.6342L23.2846 75.6342L23.2851 75.6346L23.2855 75.6348L23.2861 75.6353L23.299 75.6448C23.3116 75.6543 23.3318 75.6698 23.3581 75.6912C23.4107 75.734 23.4866 75.7994 23.5733 75.8854C23.7488 76.0593 23.9586 76.307 24.1149 76.6114C24.2697 76.9131 24.3682 77.2621 24.3387 77.6523C24.3095 78.04 24.151 78.5086 23.7272 79.0478L23.4877 79.3524L23.7216 79.6585L23.7219 79.6589L23.722 79.6591L23.7272 79.6662C23.7327 79.674 23.742 79.6872 23.754 79.7054C23.7782 79.742 23.813 79.7978 23.8512 79.8689C23.9288 80.0133 24.0137 80.2083 24.0575 80.4245C24.101 80.6388 24.1015 80.86 24.0282 81.074C23.9568 81.2824 23.8031 81.5208 23.4767 81.7568C20.9183 83.5295 18.7412 83.6097 17.0266 82.8498C15.2776 82.0746 13.9088 80.3807 13.102 78.4238L13.1014 78.4224C12.7738 77.6342 12.4281 76.8684 12.0965 76.1339C11.9599 75.8313 11.8258 75.5341 11.6963 75.2428C11.2485 74.2359 10.8527 73.2922 10.5738 72.3902C10.0233 70.61 9.94756 69.0581 10.7896 67.5791C10.7915 67.577 10.7935 67.5749 10.7955 67.5727C10.8215 67.5444 10.8623 67.5013 10.9175 67.4459C11.0279 67.3351 11.196 67.1758 11.4197 66.989C11.8677 66.6151 12.5358 66.1342 13.409 65.7135C15.1476 64.8759 17.7124 64.2695 21.0114 65.2462Z" fill="#4C4CE8" stroke="#303051"/>
<path d="M12.3809 73.542C12.5099 73.0578 13.7998 71.1857 16.1862 70.185C18.6049 69.1844 22.0555 69.5072 22.0555 69.5072" stroke="#303051" stroke-miterlimit="10" stroke-linecap="round" stroke-linejoin="round"/>
<path d="M13.9316 78.0634C14.0606 77.5792 16.7373 75.4811 18.5432 75.0615C21.6069 74.3191 23.574 75.1583 23.574 75.1583" stroke="#303051" stroke-miterlimit="10" stroke-linecap="round" stroke-linejoin="round"/>
<path d="M15.5098 81.645C15.5098 81.645 21.4435 77.3519 24.1202 79.3209" stroke="#303051" stroke-miterlimit="10" stroke-linecap="round" stroke-linejoin="round"/>
<path d="M14.5352 65.1494C14.7286 65.0203 19.5337 63.7937 21.1784 64.762" stroke="#303051" stroke-miterlimit="10" stroke-linecap="round" stroke-linejoin="round"/>
<path d="M48.6957 102.886C48.6957 102.401 44.8259 94.3962 50.0502 90.3291" stroke="#303051" stroke-miterlimit="10" stroke-linecap="round" stroke-linejoin="round"/>
<defs>
<linearGradient id="paint0_linear_9243_143567" x1="46.1829" y1="51.3967" x2="46.1829" y2="57.216" gradientUnits="userSpaceOnUse">
<stop stop-color="#66FFFF"/>
<stop offset="1" stop-color="white"/>
</linearGradient>
<linearGradient id="paint1_linear_9243_143567" x1="46.2595" y1="50.7232" x2="46.2595" y2="56.5425" gradientUnits="userSpaceOnUse">
<stop stop-color="#66FFFF"/>
<stop offset="1" stop-color="white"/>
</linearGradient>
<linearGradient id="paint2_linear_9243_143567" x1="36.0826" y1="59.8681" x2="36.0826" y2="38.7695" gradientUnits="userSpaceOnUse">
<stop stop-color="white"/>
<stop offset="1" stop-color="#66FFFF"/>
</linearGradient>
<linearGradient id="paint3_linear_9243_143567" x1="56.5106" y1="59.8658" x2="56.5106" y2="38.7671" gradientUnits="userSpaceOnUse">
<stop stop-color="white"/>
<stop offset="1" stop-color="#66FFFF"/>
</linearGradient>
</defs>
</svg>
