<svg width="100" height="100" viewBox="0 0 100 100" fill="none" xmlns="http://www.w3.org/2000/svg">
<path d="M32.6356 50H4V86H48V61.6479L32.6356 50Z" fill="white" stroke="#171717" stroke-width="2" stroke-linecap="round" stroke-linejoin="round"/>
<path d="M18.5203 69.4121L11 79.8051H26.0337L18.5203 69.4121Z" fill="#9FDE93" stroke="#171717" stroke-width="2" stroke-linecap="round" stroke-linejoin="round"/>
<path d="M30.1724 64.7012L19.249 79.8051H41.1029L30.1724 64.7012Z" fill="#9FDE93" stroke="#171717" stroke-width="2" stroke-linecap="round" stroke-linejoin="round"/>
<path d="M17.26 60.4001C17.26 58.6864 15.8595 57.2988 14.13 57.2988C12.4004 57.2988 11 58.6864 11 60.4001C11 62.1138 12.4004 63.5013 14.13 63.5013C15.8595 63.5013 17.26 62.1138 17.26 60.4001Z" fill="#FF7D73" stroke="#171717" stroke-width="2" stroke-linecap="round" stroke-linejoin="round"/>
<path d="M83.7994 80.8595C86.5913 83.6772 91.119 83.6772 93.9109 80.8595C96.7029 78.0417 96.7029 73.4721 93.9109 70.6544L77.3647 53.9551C74.5728 51.1374 70.045 51.1374 67.2531 53.9551C64.4612 56.7728 64.4612 61.3425 67.2531 64.1602L83.7994 80.8595Z" fill="white" stroke="#171717" stroke-width="2" stroke-linecap="round" stroke-linejoin="round"/>
<path d="M25.0005 43.084C24.6908 25.6994 38.4036 11.353 55.6289 11.0405C72.8541 10.7279 87.069 24.5675 87.3787 41.9521C87.6884 59.3367 73.9756 73.6831 56.7503 73.9956C39.5251 74.3082 25.3102 60.4686 25.0005 43.084Z" fill="#FFCE6C" stroke="#171717" stroke-width="2" stroke-linecap="round" stroke-linejoin="round"/>
<path d="M50.8298 66.0006C37.9761 63.0128 29.956 50.0744 32.9165 37.1018C35.8769 24.1292 48.6968 16.0349 61.5505 19.0227C74.4042 22.0105 82.4243 34.949 79.4639 47.9216C76.5035 60.8942 63.6836 68.9885 50.8298 66.0006Z" fill="white" stroke="#171717" stroke-width="2" stroke-linecap="round" stroke-linejoin="round"/>
<path d="M47.5816 46.7244L51.7545 42.5129L47.5816 38.3014C46.3545 37.063 46.3545 35.0608 47.5816 33.8224C48.8086 32.5839 50.7925 32.5839 52.0195 33.8224L56.1924 38.0339L60.3653 33.8224C61.5924 32.5839 63.5763 32.5839 64.8033 33.8224C66.0304 35.0608 66.0304 37.063 64.8033 38.3014L60.6304 42.5129L64.8033 46.7244C66.0304 47.9628 66.0304 49.965 64.8033 51.2034C63.5763 52.4418 61.5924 52.4418 60.3653 51.2034L56.1924 46.9919L52.0195 51.2034C50.7925 52.4418 48.8086 52.4418 47.5816 51.2034C46.3545 49.965 46.3545 47.9628 47.5816 46.7244Z" fill="#FF886C" stroke="#171717" stroke-width="2" stroke-linecap="round" stroke-linejoin="round"/>
</svg>
