<svg width="101" height="100" viewBox="0 0 101 100" fill="none" xmlns="http://www.w3.org/2000/svg">
<path d="M72.5 19.0469H26.5V73.9997H72.5V19.0469Z" fill="white" stroke="#373737" stroke-width="2" stroke-linecap="round" stroke-linejoin="round"/>
<path d="M54.8281 15.5773C54.4002 12.9805 52.1763 11 49.4997 11C46.8231 11 44.5992 12.9805 44.1714 15.5773H37.7783V23.3627H61.2261V15.5773H54.833H54.8281Z" fill="#43BCFF" stroke="#373737" stroke-width="2" stroke-linecap="round" stroke-linejoin="round"/>
<path d="M51.1145 46.4092V35.499H18.8857V46.4092C18.8857 52.5924 22.3717 57.9648 27.4848 60.6675C22.3717 63.3703 18.8857 68.7371 18.8857 74.9259V85.8361H51.1145V74.9259C51.1145 68.7427 47.6285 63.3703 42.5154 60.6675C47.6285 57.9648 51.1145 52.598 51.1145 46.4092Z" fill="white" stroke="#373737" stroke-width="2" stroke-linecap="round" stroke-linejoin="round"/>
<path d="M58.5 33H11.5V37.6664H58.5V33Z" fill="#FFEC59" stroke="#373737" stroke-width="2" stroke-linecap="round" stroke-linejoin="round"/>
<path d="M58.5 83.6621H11.5V88.3285H58.5V83.6621Z" fill="#FFEC59" stroke="#373737" stroke-width="2" stroke-linecap="round" stroke-linejoin="round"/>
<path d="M34.9968 71.2471C28.3724 71.2471 23 75.2019 23 80.0778H46.9992C46.9992 75.2019 41.6268 71.2471 35.0023 71.2471H34.9968Z" fill="#FFA250"/>
<path d="M37.5 65.5C37.5 64.1199 36.3801 63 35 63C33.6199 63 32.5 64.1199 32.5 65.5C32.5 66.8801 33.6199 68 35 68C36.3801 68 37.5 66.8801 37.5 65.5Z" fill="#FFA250"/>
<path d="M45.5 51C45.5 55.4183 40.799 59 35 59C29.201 59 24.5 55.4183 24.5 51H45.5Z" fill="#FFA250"/>
<g clip-path="url(#clip0_11368_5660)">
<path d="M63.2859 59.2666H56.6758V73.2357H63.2859V59.2666Z" fill="#FF7D73"/>
<path d="M63.2861 74.2017H56.6759C56.142 74.2017 55.707 73.7681 55.707 73.2358V59.2667C55.707 58.7344 56.142 58.3008 56.6759 58.3008H63.2861C63.82 58.3008 64.255 58.7344 64.255 59.2667V73.2358C64.255 73.7681 63.82 74.2017 63.2861 74.2017ZM57.6449 72.2699H62.3172V60.2326H57.6449V72.2699Z" fill="#FF7D73"/>
<path d="M75.3045 59.2666H68.6943V73.2357H75.3045V59.2666Z" fill="#FFDB6E"/>
<path d="M75.3046 74.2017H68.6945C68.1605 74.2017 67.7256 73.7681 67.7256 73.2358V59.2667C67.7256 58.7344 68.1605 58.3008 68.6945 58.3008H75.3046C75.8386 58.3008 76.2735 58.7344 76.2735 59.2667V73.2358C76.2735 73.7681 75.8386 74.2017 75.3046 74.2017ZM69.6634 72.2699H74.3357V60.2326H69.6634V72.2699Z" fill="#FFDB6E"/>
<path d="M87.324 52.6982H80.7139V73.2355H87.324V52.6982Z" fill="#43BCFF"/>
<path d="M87.3242 74.2015H80.714C80.1801 74.2015 79.7451 73.7679 79.7451 73.2355V52.6983C79.7451 52.166 80.1801 51.7324 80.714 51.7324H87.3242C87.8581 51.7324 88.2931 52.166 88.2931 52.6983V73.2355C88.2931 73.7679 87.8581 74.2015 87.3242 74.2015ZM81.6829 72.2696H86.3552V53.6642H81.6829V72.2696Z" fill="#43BCFF"/>
<path d="M91.5311 75.0002H52.4689C51.9349 75.0002 51.5 74.5666 51.5 74.0343C51.5 73.5019 51.9349 73.0684 52.4689 73.0684H91.5311C92.0651 73.0684 92.5 73.5019 92.5 74.0343C92.5 74.5666 92.0651 75.0002 91.5311 75.0002Z" fill="#3E3A39"/>
</g>
<defs>
<clipPath id="clip0_11368_5660">
<rect width="41" height="35" fill="white" transform="translate(51.5 40)"/>
</clipPath>
</defs>
</svg>
