<svg width="240" height="240" viewBox="0 0 240 240" fill="none" xmlns="http://www.w3.org/2000/svg">
<rect x="0.5" y="0.5" width="239" height="239" stroke="#B0B0B0"/>
<path d="M102.636 103H74V139H118V114.648L102.636 103Z" fill="white" stroke="#171717" stroke-width="2" stroke-linecap="round" stroke-linejoin="round"/>
<path d="M88.5203 122.412L81 132.805H96.0337L88.5203 122.412Z" fill="#9FDE93" stroke="#171717" stroke-width="2" stroke-linecap="round" stroke-linejoin="round"/>
<path d="M100.172 117.701L89.249 132.805H111.103L100.172 117.701Z" fill="#9FDE93" stroke="#171717" stroke-width="2" stroke-linecap="round" stroke-linejoin="round"/>
<path d="M87.26 113.4C87.26 111.686 85.8595 110.299 84.13 110.299C82.4004 110.299 81 111.686 81 113.4C81 115.114 82.4004 116.501 84.13 116.501C85.8595 116.501 87.26 115.114 87.26 113.4Z" fill="#FF7D73" stroke="#171717" stroke-width="2" stroke-linecap="round" stroke-linejoin="round"/>
<path d="M153.799 133.859C156.591 136.677 161.119 136.677 163.911 133.859C166.703 131.042 166.703 126.472 163.911 123.654L147.365 106.955C144.573 104.137 140.045 104.137 137.253 106.955C134.461 109.773 134.461 114.342 137.253 117.16L153.799 133.859Z" fill="white" stroke="#171717" stroke-width="2" stroke-linecap="round" stroke-linejoin="round"/>
<path d="M95.0005 96.084C94.6908 78.6994 108.404 64.353 125.629 64.0405C142.854 63.7279 157.069 77.5675 157.379 94.9521C157.688 112.337 143.976 126.683 126.75 126.996C109.525 127.308 95.3102 113.469 95.0005 96.084Z" fill="#FFCE6C" stroke="#171717" stroke-width="2" stroke-linecap="round" stroke-linejoin="round"/>
<path d="M120.83 119.001C107.976 116.013 99.956 103.074 102.916 90.1018C105.877 77.1292 118.697 69.0349 131.551 72.0227C144.404 75.0105 152.424 87.949 149.464 100.922C146.503 113.894 133.684 121.988 120.83 119.001Z" fill="white" stroke="#171717" stroke-width="2" stroke-linecap="round" stroke-linejoin="round"/>
<path d="M117.582 99.7244L121.754 95.5129L117.582 91.3014C116.354 90.063 116.354 88.0608 117.582 86.8224C118.809 85.5839 120.792 85.5839 122.02 86.8224L126.192 91.0339L130.365 86.8224C131.592 85.5839 133.576 85.5839 134.803 86.8224C136.03 88.0608 136.03 90.063 134.803 91.3014L130.63 95.5129L134.803 99.7244C136.03 100.963 136.03 102.965 134.803 104.203C133.576 105.442 131.592 105.442 130.365 104.203L126.192 99.9919L122.02 104.203C120.792 105.442 118.809 105.442 117.582 104.203C116.354 102.965 116.354 100.963 117.582 99.7244Z" fill="#FF886C" stroke="#171717" stroke-width="2" stroke-linecap="round" stroke-linejoin="round"/>
<path d="M30.81 176.322H45.714V177.834H30.81V176.322ZM37.47 177.276H39.342V180.912H37.47V177.276ZM32.682 168.78H43.788V174.702H32.682V168.78ZM41.934 170.274H34.536V173.208H41.934V170.274ZM32.628 182.64H44.058V184.17H32.628V182.64ZM32.628 179.418H34.5V183.162H32.628V179.418ZM59.6086 168.042H61.4086V184.494H59.6086V168.042ZM53.8666 173.82H56.8366V175.368H53.8666V173.82ZM56.2966 168.366H58.0606V183.684H56.2966V168.366ZM50.5366 170.652H51.9766V172.56C51.9766 176.196 50.7526 179.724 48.2506 181.308L47.1166 179.904C49.4566 178.464 50.5366 175.494 50.5366 172.56V170.652ZM50.9506 170.652H52.3726V172.56C52.3726 175.368 53.4166 178.176 55.7206 179.526L54.6046 180.912C52.1026 179.418 50.9506 176.088 50.9506 172.56V170.652ZM47.6386 169.842H55.0726V171.372H47.6386V169.842ZM79.6342 168.024H81.5242V184.512H79.6342V168.024ZM72.7582 169.248C75.2242 169.248 77.0062 171.498 77.0062 175.044C77.0062 178.59 75.2242 180.858 72.7582 180.858C70.3102 180.858 68.5282 178.59 68.5282 175.044C68.5282 171.498 70.3102 169.248 72.7582 169.248ZM72.7582 170.958C71.3182 170.958 70.3282 172.488 70.3282 175.044C70.3282 177.618 71.3182 179.166 72.7582 179.166C74.1982 179.166 75.1882 177.618 75.1882 175.044C75.1882 172.488 74.1982 170.958 72.7582 170.958ZM85.4108 169.59H93.1328V180.462H85.4108V169.59ZM91.2968 171.084H87.2648V178.95H91.2968V171.084ZM96.1928 168.024H98.0828V184.512H96.1928V168.024ZM105.281 170.508H106.793V172.812C106.793 176.43 104.939 180.012 102.113 181.362L101.033 179.868C103.571 178.698 105.281 175.62 105.281 172.812V170.508ZM105.677 170.508H107.171V172.812C107.171 175.53 108.863 178.374 111.437 179.454L110.393 180.948C107.531 179.67 105.677 176.34 105.677 172.812V170.508ZM101.627 169.68H110.825V171.246H101.627V169.68ZM112.751 168.042H114.641V184.494H112.751V168.042ZM128.518 168.024H130.408V184.476H128.518V168.024ZM129.904 174.54H132.874V176.088H129.904V174.54ZM124.252 169.77H126.106C126.106 174.558 124.072 178.788 118.69 181.488L117.628 180.048C122.074 177.78 124.252 174.486 124.252 170.094V169.77ZM118.456 169.77H125.224V171.3H118.456V169.77ZM140.102 177.69H141.866V179.544H144.188V177.69H145.934V184.296H140.102V177.69ZM141.866 180.93V182.856H144.188V180.93H141.866ZM148.832 177.564H150.272V178.878C150.272 181.182 149.21 183.486 146.87 184.44L145.934 183.018C147.914 182.208 148.832 180.498 148.832 178.878V177.564ZM149.246 177.564H150.704V178.878C150.704 180.606 151.604 182.298 153.602 183.018L152.648 184.44C150.272 183.522 149.246 181.326 149.246 178.878V177.564ZM146.546 171.75H150.83V173.298H146.546V171.75ZM142.766 168.726C145.232 168.726 147.05 170.292 147.05 172.542C147.05 174.81 145.232 176.376 142.766 176.376C140.3 176.376 138.482 174.81 138.482 172.542C138.482 170.292 140.3 168.726 142.766 168.726ZM142.766 170.274C141.326 170.274 140.282 171.174 140.282 172.542C140.282 173.91 141.326 174.828 142.766 174.828C144.206 174.828 145.232 173.91 145.232 172.542C145.232 171.174 144.206 170.274 142.766 170.274ZM150.002 168.042H151.892V176.754H150.002V168.042ZM156.624 177.906H158.496V179.58H165.894V177.906H167.766V184.296H156.624V177.906ZM158.496 181.002V182.802H165.894V181.002H158.496ZM154.806 175.404H169.674V176.898H154.806V175.404ZM161.286 168.222H162.906V168.852C162.906 171.714 160.044 173.91 156.282 174.432L155.598 172.956C158.892 172.542 161.286 170.742 161.286 168.852V168.222ZM161.592 168.222H163.212V168.852C163.212 170.724 165.624 172.542 168.882 172.956L168.198 174.432C164.454 173.91 161.592 171.678 161.592 168.852V168.222ZM183.083 168.042H184.955V184.494H183.083V168.042ZM172.337 169.626H174.209V179.832H172.337V169.626ZM172.337 178.716H173.741C176.189 178.716 178.817 178.536 181.571 177.978L181.787 179.562C178.943 180.156 176.297 180.336 173.741 180.336H172.337V178.716ZM198.795 168.024H200.685V184.512H198.795V168.024ZM200.253 174.342H203.241V175.908H200.253V174.342ZM188.607 178.914H189.939C192.855 178.914 195.015 178.806 197.445 178.356L197.643 179.94C195.123 180.39 192.927 180.48 189.939 180.48H188.607V178.914ZM188.607 169.59H196.257V171.12H190.479V179.634H188.607V169.59ZM206.354 183.252C205.562 183.252 204.968 182.64 204.968 181.794C204.968 180.93 205.562 180.336 206.354 180.336C207.128 180.336 207.74 180.93 207.74 181.794C207.74 182.64 207.128 183.252 206.354 183.252Z" fill="#171717"/>
</svg>
