<svg width="300" height="300" viewBox="0 0 300 300" fill="none" xmlns="http://www.w3.org/2000/svg">
<rect x="142.51" y="5" width="14.9794" height="59.3183" rx="7.48968" fill="#FFBF00"/>
<rect opacity="0.5" x="142.51" y="235.682" width="14.9794" height="59.3183" rx="7.48968" fill="#FFBF00"/>
<rect opacity="0.2" x="271.829" y="71.0132" width="14.9794" height="59.3183" rx="7.48968" transform="rotate(60 271.829 71.0132)" fill="#FFBF00"/>
<rect opacity="0.7" x="72.0522" y="186.354" width="14.9794" height="59.3183" rx="7.48968" transform="rotate(60 72.0522 186.354)" fill="#FFBF00"/>
<rect opacity="0.3" x="295" y="142.51" width="14.9794" height="59.3183" rx="7.48968" transform="rotate(90 295 142.51)" fill="#FFBF00"/>
<rect opacity="0.8" x="64.3181" y="142.51" width="14.9794" height="59.3183" rx="7.48968" transform="rotate(90 64.3181 142.51)" fill="#FFBF00"/>
<rect opacity="0.4" x="279.319" y="216.013" width="14.9794" height="59.3183" rx="7.48968" transform="rotate(120 279.319 216.013)" fill="#FFBF00"/>
<rect opacity="0.9" x="79.542" y="100.673" width="14.9794" height="59.3183" rx="7.48968" transform="rotate(120 79.542 100.673)" fill="#FFBF00"/>
<rect opacity="0.4" x="228.986" y="271.829" width="14.9794" height="59.3183" rx="7.48968" transform="rotate(150 228.986 271.829)" fill="#FFBF00"/>
<rect opacity="0.95" x="113.645" y="72.0527" width="14.9794" height="59.3183" rx="7.48968" transform="rotate(150 113.645 72.0527)" fill="#FFBF00"/>
<rect opacity="0.6" x="83.9858" y="279.319" width="14.9794" height="59.3183" rx="7.48968" transform="rotate(-150 83.9858 279.319)" fill="#FFBF00"/>
<rect opacity="0.1" x="199.327" y="79.5425" width="14.9794" height="59.3183" rx="7.48968" transform="rotate(-150 199.327 79.5425)" fill="#FFBF00"/>
</svg>
