<svg width="94" height="92" viewBox="0 0 94 92" fill="none" xmlns="http://www.w3.org/2000/svg">
<path d="M82 2V14H94L82 2Z" fill="#B94A00"/>
<g filter="url(#filter0_d_6_54)">
<path d="M82 2H14C7.37258 2 2 7.37258 2 14V58.0804C2 62.9727 4.97004 67.3753 9.50645 69.2073L36.7802 80.2217C39.6091 81.3641 42.767 81.3862 45.6115 80.2834L74.3377 69.1464C78.9563 67.3558 82 62.9114 82 57.9579V2Z" fill="#FF6D00"/>
</g>
<path opacity="0.8" d="M78.5 4.5H17C10.6487 4.5 5.5 9.64873 5.5 16V55.2672C5.5 59.9557 8.34628 64.1748 12.6937 65.9305L37.0287 75.7581C39.7397 76.8529 42.766 76.874 45.492 75.8172L71.157 65.8671C75.5831 64.1511 78.5 59.8918 78.5 55.1447V4.5Z" fill="#FF6D00" stroke="white"/>
<defs>
<filter id="filter0_d_6_54" x="0" y="0" width="92" height="91.0948" filterUnits="userSpaceOnUse" color-interpolation-filters="sRGB">
<feFlood flood-opacity="0" result="BackgroundImageFix"/>
<feColorMatrix in="SourceAlpha" type="matrix" values="0 0 0 0 0 0 0 0 0 0 0 0 0 0 0 0 0 0 127 0" result="hardAlpha"/>
<feOffset dx="4" dy="4"/>
<feGaussianBlur stdDeviation="3"/>
<feComposite in2="hardAlpha" operator="out"/>
<feColorMatrix type="matrix" values="0 0 0 0 0 0 0 0 0 0 0 0 0 0 0 0 0 0 0.2 0"/>
<feBlend mode="normal" in2="BackgroundImageFix" result="effect1_dropShadow_6_54"/>
<feBlend mode="normal" in="SourceGraphic" in2="effect1_dropShadow_6_54" result="shape"/>
</filter>
</defs>
</svg>
