<svg width="91" height="81" viewBox="0 0 91 81" fill="none" xmlns="http://www.w3.org/2000/svg">
<path d="M10.5332 2.00043V12.4814H-0.000130653L10.5332 2.00043Z" fill="#B94A00"/>
<g filter="url(#filter0_d_9243_180492)">
<path d="M10.5332 2H68.7554C75.3828 2 80.7554 7.37258 80.7554 14V49.9418C80.7554 54.8417 77.7763 59.2494 73.2298 61.0764L50.7455 70.1115C47.9277 71.2438 44.7854 71.2657 41.9522 70.1727L18.2142 61.0154C13.5858 59.2299 10.5332 54.7804 10.5332 49.8196V2Z" fill="#FF5500"/>
</g>
<path opacity="0.8" d="M13.6665 4.58398H66.1221C72.4733 4.58398 77.6221 9.73271 77.6221 16.084V47.8218C77.6221 52.5176 74.7671 56.7417 70.41 58.4925L50.5053 66.491C47.8049 67.5762 44.7936 67.5971 42.0783 66.5497L21.0275 58.429C16.5919 56.7179 13.6665 52.4538 13.6665 47.6996V4.58398Z" fill="#FF5500" stroke="white"/>
<defs>
<filter id="filter0_d_9243_180492" x="8.5332" y="0" width="82.2222" height="80.9766" filterUnits="userSpaceOnUse" color-interpolation-filters="sRGB">
<feFlood flood-opacity="0" result="BackgroundImageFix"/>
<feColorMatrix in="SourceAlpha" type="matrix" values="0 0 0 0 0 0 0 0 0 0 0 0 0 0 0 0 0 0 127 0" result="hardAlpha"/>
<feOffset dx="4" dy="4"/>
<feGaussianBlur stdDeviation="3"/>
<feComposite in2="hardAlpha" operator="out"/>
<feColorMatrix type="matrix" values="0 0 0 0 0 0 0 0 0 0 0 0 0 0 0 0 0 0 0.2 0"/>
<feBlend mode="normal" in2="BackgroundImageFix" result="effect1_dropShadow_9243_180492"/>
<feBlend mode="normal" in="SourceGraphic" in2="effect1_dropShadow_9243_180492" result="shape"/>
</filter>
</defs>
</svg>
