<svg width="240" height="135" viewBox="0 0 240 135" fill="none" xmlns="http://www.w3.org/2000/svg">
<path d="M0.5 5C0.5 2.51472 2.51472 0.5 5 0.5H235C237.485 0.5 239.5 2.51472 239.5 5V130C239.5 132.485 237.485 134.5 235 134.5H5C2.51471 134.5 0.5 132.485 0.5 130V5Z" fill="#F8F8F8"/>
<path d="M0.5 5C0.5 2.51472 2.51472 0.5 5 0.5H235C237.485 0.5 239.5 2.51472 239.5 5V130C239.5 132.485 237.485 134.5 235 134.5H5C2.51471 134.5 0.5 132.485 0.5 130V5Z" stroke="none"/>
<path d="M80.36 76.5V74.8C84.38 71.2 86.76 68.42 86.76 66.14C86.76 64.64 85.96 63.74 84.54 63.74C83.46 63.74 82.58 64.44 81.82 65.26L80.22 63.66C81.58 62.2 82.9 61.42 84.92 61.42C87.72 61.42 89.58 63.22 89.58 65.98C89.58 68.66 87.36 71.54 84.66 74.18C85.4 74.1 86.38 74.02 87.08 74.02H90.28V76.5H80.36ZM94.5573 70.42H98.0173V67.4C98.0173 66.54 98.0773 65.2 98.1173 64.32H98.0373C97.6773 65.12 97.2773 65.94 96.8573 66.74L94.5573 70.42ZM98.0173 76.5V72.66H91.6973V70.66L97.2173 61.68H100.757V70.42H102.497V72.66H100.757V76.5H98.0173ZM108.955 76.78C105.935 76.78 103.935 74.14 103.935 69.04C103.935 63.92 105.935 61.42 108.955 61.42C111.975 61.42 113.955 63.94 113.955 69.04C113.955 74.14 111.975 76.78 108.955 76.78ZM108.955 74.48C110.235 74.48 111.175 73.2 111.175 69.04C111.175 64.9 110.235 63.7 108.955 63.7C107.675 63.7 106.715 64.9 106.715 69.04C106.715 73.2 107.675 74.48 108.955 74.48ZM118.132 68.14L116.872 67.22L118.192 64.94L115.812 63.88L116.292 62.4L118.852 62.96L119.112 60.34H120.692L120.932 62.98L123.492 62.4L123.972 63.88L121.572 64.94L122.932 67.22L121.652 68.14L119.892 66.14L118.132 68.14ZM126.589 76.5V74.12H129.769V64.76H127.089V62.94C128.569 62.66 129.589 62.28 130.529 61.68H132.709V74.12H135.489V76.5H126.589ZM142.207 76.78C139.867 76.78 138.287 75.9 137.247 74.72L138.627 72.86C139.507 73.72 140.587 74.38 141.927 74.38C143.427 74.38 144.447 73.64 144.447 72.3C144.447 70.86 143.587 69.94 140.367 69.94V67.84C143.087 67.84 143.967 66.9 143.967 65.58C143.967 64.42 143.247 63.74 141.987 63.74C140.927 63.74 140.067 64.22 139.187 65.04L137.687 63.24C138.967 62.12 140.387 61.42 142.127 61.42C144.987 61.42 146.927 62.84 146.927 65.36C146.927 66.96 146.027 68.12 144.467 68.74V68.84C146.127 69.3 147.407 70.54 147.407 72.48C147.407 75.2 145.027 76.78 142.207 76.78ZM154.024 76.78C151.684 76.78 150.124 75.86 149.024 74.76L150.384 72.88C151.224 73.7 152.264 74.38 153.644 74.38C155.184 74.38 156.264 73.4 156.264 71.66C156.264 69.94 155.264 68.98 153.764 68.98C152.884 68.98 152.404 69.2 151.544 69.76L150.204 68.88L150.604 61.68H158.524V64.16H153.144L152.864 67.3C153.464 67.02 153.964 66.88 154.644 66.88C157.124 66.88 159.204 68.36 159.204 71.58C159.204 74.88 156.764 76.78 154.024 76.78Z" fill="#171717"/>
</svg>
