<svg width="31" height="30" viewBox="0 0 31 30" fill="none" xmlns="http://www.w3.org/2000/svg">
<g clip-path="url(#clip0_10450_88958)">
<path d="M21.5 10.9951V6.43956C21.5 5.08953 20.4992 3.99512 19.2647 3.99512H4.73529C3.50078 3.99512 2.5 5.08953 2.5 6.43956V23.5507C2.5 24.9007 3.50078 25.9951 4.73529 25.9951H9" stroke="#171717" stroke-width="1.5" stroke-linecap="round" stroke-linejoin="round"/>
<path d="M6.5 8.99512H14.5" stroke="#171717" stroke-width="1.5" stroke-linecap="round" stroke-linejoin="round"/>
<path d="M6.5 13.9951H9.5" stroke="#171717" stroke-width="1.5" stroke-linecap="round" stroke-linejoin="round"/>
<path d="M6.5 18.9951H8.5" stroke="#171717" stroke-width="1.5" stroke-linecap="round" stroke-linejoin="round"/>
<g clip-path="url(#clip1_10450_88958)">
<path d="M26.3871 16.8577V16.4576C26.3871 13.4468 24.0731 10.9951 21.2261 10.9951H18.7739C16.8379 10.9951 15.1467 12.1338 14.2647 13.8084C14.0926 14.1316 13.9521 14.4752 13.8455 14.8342C13.6953 15.3497 13.6129 15.8934 13.6129 16.4602V16.8602C13.6662 16.85 13.7195 16.8448 13.7752 16.8397C13.9885 16.4858 14.3616 16.2499 14.7856 16.2499C15.4471 16.2499 15.985 16.8192 15.985 17.5193V24.7257C15.985 25.4258 15.4471 25.9951 14.7856 25.9951C14.3592 25.9951 13.9885 25.7566 13.7752 25.4027C12.5056 25.3001 11.5 24.1769 11.5 22.8074V19.4376C11.5 18.5118 11.958 17.7014 12.6437 17.2398C12.7937 17.106 13.2 16.8384 13.625 16.8384M26.3871 16.8577C26.3338 16.85 26.2781 16.8423 26.2248 16.8371C26.0115 16.4832 25.6408 16.2473 25.2144 16.2473C24.5529 16.2473 24.015 16.8166 24.015 17.5167V24.7231C24.015 25.4232 24.5529 25.9926 25.2144 25.9926C25.6384 25.9926 26.0115 25.7566 26.2248 25.4001C27.4944 25.3001 28.5 24.1743 28.5 22.8048V19.435C28.5 18.5118 28.042 17.7014 27.3563 17.2398H27.3587C27.3931 17.1188 27.2468 16.873 26.3871 16.8577Z" stroke="#171717" stroke-width="1.5" stroke-miterlimit="10"/>
</g>
</g>
<defs>
<clipPath id="clip0_10450_88958">
<rect width="30" height="30" fill="white" transform="translate(0.5 -0.00488281)"/>
</clipPath>
<clipPath id="clip1_10450_88958">
<rect width="21" height="19" fill="white" transform="translate(8.5 7.99512)"/>
</clipPath>
</defs>
</svg>
