<svg width="34" height="34" viewBox="0 0 34 34" fill="none" xmlns="http://www.w3.org/2000/svg">
<path d="M33.6673 16.9997C33.6673 26.2044 26.2054 33.6663 17.0007 33.6663C7.7959 33.6663 0.333984 26.2044 0.333984 16.9997C0.333984 7.79493 7.7959 0.333008 17.0007 0.333008C26.2054 0.333008 33.6673 7.79493 33.6673 16.9997Z" fill="#FFC81C"/>
<path d="M24.5013 13.6667C24.5013 14.5871 23.7551 15.3333 22.8346 15.3333C21.9142 15.3333 21.168 14.5871 21.168 13.6667C21.168 12.7462 21.9142 12 22.8346 12C23.7551 12 24.5013 12.7462 24.5013 13.6667Z" fill="#171717"/>
<circle cx="11.1667" cy="13.6667" r="1.66667" fill="#171717"/>
<path fill-rule="evenodd" clip-rule="evenodd" d="M16.28 23.2597C14.95 23.0092 13.8399 22.1428 13.2712 21.4348C13.0242 21.1272 12.5746 21.0781 12.267 21.3251C11.9595 21.5722 11.9104 22.0218 12.1574 22.3293C12.8874 23.2383 14.2773 24.3362 16.0155 24.6636C17.814 25.0024 19.8763 24.4943 21.8142 22.3625C22.0796 22.0706 22.0581 21.6189 21.7662 21.3535C21.4743 21.0882 21.0225 21.1097 20.7572 21.4016C19.1237 23.1984 17.5497 23.4989 16.28 23.2597Z" fill="#171717"/>
</svg>
