<svg width="50" height="45" viewBox="0 0 50 45" fill="none" xmlns="http://www.w3.org/2000/svg">
<path d="M22.7925 43.6395L22.7856 43.6326L22.7785 43.6259L19.4665 40.5382C19.4665 40.5381 19.4664 40.5381 19.4664 40.5381C14.3101 35.7158 9.84377 31.1173 6.06593 26.7425C2.33539 22.4226 0.5 17.9442 0.5 13.2983C0.5 9.64045 1.71395 6.60778 4.13628 4.1651C6.55953 1.72148 9.54466 0.5 13.125 0.5C15.1662 0.5 17.195 0.993766 19.216 1.99238C21.2074 2.97637 23.0009 4.60284 24.5886 6.90178L24.9757 7.46233L25.3944 6.92496C27.1984 4.60962 29.0426 2.97364 30.9201 1.9867C32.8083 0.994172 34.7911 0.5 36.875 0.5C40.4553 0.5 43.4405 1.72148 45.8637 4.1651C48.286 6.60778 49.5 9.64045 49.5 13.2983C49.5 17.9442 47.6646 22.4226 43.9341 26.7425C40.1562 31.1173 35.6899 35.7158 30.5336 40.5381C30.5336 40.5381 30.5335 40.5381 30.5335 40.5382L27.2215 43.6259L27.2144 43.6326L27.2075 43.6395C26.9274 43.922 26.5946 44.1348 26.2029 44.2785C25.7961 44.4276 25.3959 44.5 25 44.5C24.6041 44.5 24.2039 44.4276 23.7971 44.2785C23.4054 44.1348 23.0726 43.922 22.7925 43.6395Z" fill="#FFEAED" stroke="white"/>
</svg>
