<svg width="101" height="100" viewBox="0 0 101 100" fill="none" xmlns="http://www.w3.org/2000/svg">
<path d="M41.1913 22.0632C41.1913 18.161 38.0453 15 34.1616 15C30.2779 15 27.1318 18.161 27.1318 22.0632C27.1318 25.9653 30.2779 29.1263 34.1616 29.1263C38.0453 29.1263 41.1913 25.9653 41.1913 22.0632Z" fill="#7A6A56" stroke="#373737" stroke-width="2" stroke-linecap="round" stroke-linejoin="round"/>
<path d="M75.8359 22.0632C75.8359 18.161 72.6898 15 68.8061 15C64.9224 15 61.7764 18.161 61.7764 22.0632C61.7764 25.9653 64.9224 29.1263 68.8061 29.1263C72.6898 29.1263 75.8359 25.9653 75.8359 22.0632Z" fill="#7A6A56" stroke="#373737" stroke-width="2" stroke-linecap="round" stroke-linejoin="round"/>
<path d="M51.0088 54.959C39.797 54.959 30.7061 64.0931 30.7061 75.3582V86.6778H71.317V75.3582C71.317 64.0931 62.226 54.959 51.0142 54.959H51.0088Z" fill="#9FDE93" stroke="#373737" stroke-width="2" stroke-linecap="round" stroke-linejoin="round"/>
<path d="M57.8159 65.1504L51.0085 79.1132L44.2012 65.1504" fill="#FFD6BD"/>
<path d="M57.8159 65.1504L51.0085 79.1132L44.2012 65.1504" stroke="#373737" stroke-width="2" stroke-linecap="round" stroke-linejoin="round"/>
<path d="M33.6024 44.7833C33.6024 41.7967 31.1941 39.377 28.2216 39.377C25.2492 39.377 22.8408 41.7967 22.8408 44.7833C22.8408 47.7699 25.2492 50.1897 28.2216 50.1897C31.1941 50.1897 33.6024 47.7699 33.6024 44.7833Z" fill="#FFD6BD" stroke="#373737" stroke-width="2" stroke-linecap="round" stroke-linejoin="round"/>
<path d="M79.1766 44.7833C79.1766 41.7967 76.7683 39.377 73.7958 39.377C70.8234 39.377 68.415 41.7967 68.415 44.7833C68.415 47.7699 70.8234 50.1897 73.7958 50.1897C76.7683 50.1897 79.1766 47.7699 79.1766 44.7833Z" fill="#FFD6BD" stroke="#373737" stroke-width="2" stroke-linecap="round" stroke-linejoin="round"/>
<path d="M74.2729 44.7841C74.2729 31.8731 63.8584 21.4092 51.0085 21.4092C38.1586 21.4092 27.7441 31.8731 27.7441 44.7841C27.7441 57.695 38.1586 68.159 51.0085 68.159C63.8584 68.159 74.2729 57.695 74.2729 44.7841Z" fill="#FFEEE3" stroke="#373737" stroke-width="2" stroke-linecap="round" stroke-linejoin="round"/>
<path d="M46.1051 54.0817C46.1051 50.2177 42.9862 47.084 39.1404 47.084C35.2947 47.084 32.1758 50.2177 32.1758 54.0817C32.1758 57.9458 35.2947 61.0795 39.1404 61.0795C42.9862 61.0795 46.1051 57.9458 46.1051 54.0817Z" fill="#FFD6D6"/>
<path d="M69.8414 54.0817C69.8414 50.2177 66.7225 47.084 62.8768 47.084C59.031 47.084 55.9121 50.2177 55.9121 54.0817C55.9121 57.9458 59.031 61.0795 62.8768 61.0795C66.7225 61.0795 69.8414 57.9458 69.8414 54.0817Z" fill="#FFD6D6"/>
<path d="M53.3521 53.1273C53.3521 52.0918 52.5167 51.2471 51.4807 51.2471C50.4447 51.2471 49.6094 52.0864 49.6094 53.1273C49.6094 54.1683 50.4447 55.0075 51.4807 55.0075C52.5167 55.0075 53.3521 54.1683 53.3521 53.1273Z" fill="#FFD6BD"/>
<path d="M44.9551 49.7102C44.9551 48.6584 44.1035 47.8027 43.0567 47.8027C42.0098 47.8027 41.1582 48.6584 41.1582 49.7102C41.1582 50.7621 42.0098 51.6177 43.0567 51.6177C44.1035 51.6177 44.9551 50.7621 44.9551 49.7102Z" fill="#373737"/>
<path d="M60.8594 49.7102C60.8594 48.6584 60.0078 47.8027 58.961 47.8027C57.9141 47.8027 57.0625 48.6584 57.0625 49.7102C57.0625 50.7621 57.9141 51.6177 58.961 51.6177C60.0078 51.6177 60.8594 50.7621 60.8594 49.7102Z" fill="#373737"/>
<path d="M48.2038 58.4507C50.0589 60.3146 53.0639 60.3146 54.9189 58.4507L48.2038 58.4507Z" fill="#FFEEE3"/>
<path d="M48.2038 58.4507C50.0589 60.3146 53.0639 60.3146 54.9189 58.4507" stroke="#373737" stroke-width="2" stroke-linecap="round" stroke-linejoin="round"/>
<path d="M35.1264 63.0684C35.1264 63.0684 24.9181 66.8833 23.0196 72.8456C21.1212 78.8078 23.2583 82.8626 29.1924 84.5303C35.1264 86.198 41.7711 82.8626 41.7711 82.8626" fill="#9FDE93"/>
<path d="M35.1264 63.0684C35.1264 63.0684 24.9181 66.8833 23.0196 72.8456C21.1212 78.8078 23.2583 82.8626 29.1924 84.5303C35.1264 86.198 41.7711 82.8626 41.7711 82.8626" stroke="#373737" stroke-width="2" stroke-linecap="round" stroke-linejoin="round"/>
<path d="M36.4289 75.0799C35.6315 75.3851 34.7419 74.9818 34.4382 74.1861L30.6738 64.2672C30.37 63.466 30.7714 62.5723 31.5634 62.2671C32.3607 61.9619 33.2503 62.3652 33.554 63.1608L37.3184 73.0798C37.6222 73.8809 37.2208 74.7747 36.4289 75.0799Z" fill="#FFD859" stroke="#373737" stroke-width="2" stroke-linecap="round" stroke-linejoin="round"/>
<path d="M44.1472 78.0937C44.1472 74.6711 41.3863 71.8916 37.9745 71.8916C34.5627 71.8916 31.8018 74.6711 31.8018 78.0937C31.8018 81.5162 34.5627 84.2957 37.9745 84.2957C41.3863 84.2957 44.1472 81.5217 44.1472 78.0937Z" fill="#FFEEE3" stroke="#373737" stroke-width="2" stroke-linecap="round" stroke-linejoin="round"/>
<path d="M62.4214 65.9297L62.8987 70.9382L55.5381 78.5682" stroke="#373737" stroke-width="2" stroke-linecap="round" stroke-linejoin="round"/>
<path d="M77.5815 77.1404C77.5815 79.9089 74.7772 82.1489 71.322 82.1489C67.8668 82.1489 65.0625 79.9089 65.0625 77.1404C65.0625 74.3718 67.8668 72.1318 71.322 72.1318C74.7772 72.1318 77.5815 74.3772 77.5815 77.1404Z" fill="#FFEEE3" stroke="#373737" stroke-width="2" stroke-linecap="round" stroke-linejoin="round"/>
<path d="M51.0082 84.3448C46.0397 80.9004 37.3556 77.5977 24.0283 81.1075V89.5059H77.9882V81.1075C64.6555 77.5923 55.9768 80.9004 51.0082 84.3448Z" fill="white" stroke="#373737" stroke-width="2" stroke-linecap="round" stroke-linejoin="round"/>
<path d="M83.4994 88.3125H18.5176V92.9886H83.4994V88.3125Z" fill="#FF7D73" stroke="#373737" stroke-width="2" stroke-linecap="round" stroke-linejoin="round"/>
<path d="M26.6318 43.2242C26.6318 43.2242 36.9215 40.1995 43.1973 31.6213C43.1973 31.6213 43.7018 37.1693 41.9443 38.4283H59.0143C59.0143 38.4283 60.5222 36.4118 60.0177 31.872C60.0177 31.872 67.8014 40.7009 76.3337 42.4667C76.3337 42.4667 75.5797 19.2607 52.489 19.2607C26.8922 19.2607 26.6318 43.2188 26.6318 43.2188V43.2242Z" fill="#7A6A56" stroke="#373737" stroke-width="2" stroke-linecap="round" stroke-linejoin="round"/>
</svg>
