<svg width="51" height="50" viewBox="0 0 51 50" fill="none" xmlns="http://www.w3.org/2000/svg">
<path d="M48.3974 32.9806C48.3974 32.9806 50.5978 27.9787 34.7164 30.2616C34.7164 30.2616 28.498 28.2706 24.383 17.5879C24.383 17.5879 25.3394 11.5677 25.2926 8.79938C25.2926 8.79938 23.9533 13.9473 23.6189 14.8689C23.6189 14.8689 20.9402 4.86502 23.236 2.6314C23.236 2.6314 24.7988 2.97084 25.5005 7.92351C25.5005 7.92351 26.5366 2.20929 23.0921 2C23.0921 2 20.4603 2.14598 20.2697 4.67156C20.2697 4.67156 19.8868 12.0531 22.231 18.608C22.231 18.608 10.702 46.1397 4.14918 47.063C4.14918 47.063 3.52716 44.4407 11.8993 37.2544C11.8993 37.2544 -0.920533 44.5374 3.38508 47.3057C3.38508 47.3057 5.49024 49.3459 8.79092 46.4316C8.79092 46.4316 11.901 44.052 15.8705 36.2343C15.8705 36.2343 24.1941 33.3693 33.5227 31.9605C33.5227 31.9605 46.391 39.342 48.3991 34.1941V33.612C48.3991 33.612 47.3474 36.9132 37.0624 31.5243C37.0624 31.5243 46.8207 30.3583 48.3991 32.9806H48.3974ZM16.4423 34.9715C20.0774 29.4842 23.2827 21.0843 23.2827 21.0843C26.249 27.2998 31.5111 30.747 31.5111 30.747C24.4315 32.0573 16.4423 34.9715 16.4423 34.9715Z" fill="white"/>
</svg>
