<svg width="100" height="101" viewBox="0 0 100 101" fill="none" xmlns="http://www.w3.org/2000/svg">
<g clip-path="url(#clip0_8496_61237)">
<path d="M39.0494 16.134C39.0494 12.0017 35.702 8.65428 31.5696 8.65428C27.4373 8.65428 24.0898 12.0017 24.0898 16.134C24.0898 20.2664 27.4373 23.6138 31.5696 23.6138C35.702 23.6138 39.0494 20.2664 39.0494 16.134Z" fill="#7A6A56" stroke="#373737" stroke-width="2" stroke-linecap="round" stroke-linejoin="round"/>
<path d="M75.9048 16.134C75.9048 12.0017 72.5574 8.65428 68.4251 8.65428C64.2927 8.65428 60.9453 12.0017 60.9453 16.134C60.9453 20.2664 64.2927 23.6138 68.4251 23.6138C72.5574 23.6138 75.9048 20.2664 75.9048 16.134Z" fill="#7A6A56" stroke="#373737" stroke-width="2" stroke-linecap="round" stroke-linejoin="round"/>
<path d="M24.3609 45.8975C27.7045 45.8975 30.4151 43.187 30.4151 39.8433C30.4151 36.4997 27.7045 33.7891 24.3609 33.7891C21.0172 33.7891 18.3066 36.4997 18.3066 39.8433C18.3066 43.187 21.0172 45.8975 24.3609 45.8975Z" fill="#FFD6BD" stroke="#373737" stroke-width="2" stroke-miterlimit="10"/>
<path d="M75.6402 45.8975C78.9838 45.8975 81.6944 43.187 81.6944 39.8433C81.6944 36.4997 78.9838 33.7891 75.6402 33.7891C72.2965 33.7891 69.5859 36.4997 69.5859 39.8433C69.5859 43.187 72.2965 45.8975 75.6402 45.8975Z" fill="#FFD6BD" stroke="#373737" stroke-width="2" stroke-miterlimit="10"/>
<path d="M49.9976 66.0167C64.4528 66.0167 76.171 54.2985 76.171 39.8433C76.171 25.3881 64.4528 13.6699 49.9976 13.6699C35.5425 13.6699 23.8242 25.3881 23.8242 39.8433C23.8242 54.2985 35.5425 66.0167 49.9976 66.0167Z" fill="#FFEEE3" stroke="#373737" stroke-width="2" stroke-miterlimit="10"/>
<path d="M44.4799 47.5886C44.4799 43.26 40.9709 39.7567 36.6423 39.7567C32.3137 39.7567 28.8047 43.2658 28.8047 47.5886C28.8047 51.9114 32.3137 55.4262 36.6423 55.4262C40.9709 55.4262 44.4799 51.9171 44.4799 47.5886Z" fill="#FFD6D6"/>
<path d="M71.1909 47.5886C71.1909 43.26 67.6819 39.7567 63.3533 39.7567C59.0247 39.7567 55.5215 43.2658 55.5215 47.5886C55.5215 51.9114 59.0305 55.4262 63.3533 55.4262C67.6761 55.4262 71.1909 51.9171 71.1909 47.5886Z" fill="#FFD6D6"/>
<path d="M52.1039 42.9602C52.1039 41.8001 51.1632 40.8594 50.0031 40.8594C48.8431 40.8594 47.9023 41.8001 47.9023 42.9602C47.9023 44.1202 48.8431 45.061 50.0031 45.061C51.1632 45.061 52.1039 44.1202 52.1039 42.9602Z" fill="#FFD6BD"/>
<path d="M43.1869 40.0222C43.1869 38.8449 42.2288 37.8868 41.0514 37.8868C39.8741 37.8868 38.916 38.8449 38.916 40.0222C38.916 41.1996 39.8741 42.1577 41.0514 42.1577C42.2288 42.1577 43.1869 41.1996 43.1869 40.0222Z" fill="#373737"/>
<path d="M61.0834 40.0222C61.0834 38.8449 60.1253 37.8868 58.9479 37.8868C57.7706 37.8868 56.8125 38.8449 56.8125 40.0222C56.8125 41.1996 57.7706 42.1577 58.9479 42.1577C60.1253 42.1577 61.0834 41.1996 61.0834 40.0222Z" fill="#373737"/>
<path d="M50.0309 93.1939C38.0552 88.8826 24.9483 88.8826 12.9668 93.1939V51.5703C24.9425 47.2591 38.0494 47.2591 50.0309 51.5703V93.1939Z" fill="#43BCFF" stroke="#373737" stroke-width="2" stroke-linecap="round" stroke-linejoin="round"/>
<path d="M87.0309 93.1939C75.0552 88.8826 61.9483 88.8826 49.9668 93.1939V51.5703C61.9425 47.2591 75.0494 47.2591 87.0309 51.5703V93.1939Z" fill="#43BCFF" stroke="#373737" stroke-width="2" stroke-linecap="round" stroke-linejoin="round"/>
<path d="M18.4793 69.9064C18.4793 72.7575 16.1649 75.0718 13.3139 75.0718C10.4628 75.0718 8.14844 72.7575 8.14844 69.9064V66.7033C8.14844 63.8522 10.4628 61.5378 13.3139 61.5378C16.1649 61.5378 18.4793 63.8522 18.4793 66.7033V69.9064Z" fill="#FFEEE3" stroke="#373737" stroke-width="2" stroke-miterlimit="10"/>
<path d="M91.8465 69.9064C91.8465 72.7575 89.5321 75.0718 86.681 75.0718C83.83 75.0718 81.5156 72.7575 81.5156 69.9064V66.7033C81.5156 63.8522 83.83 61.5378 86.681 61.5378C89.5321 61.5378 91.8465 63.8522 91.8465 66.7033V69.9064Z" fill="#FFEEE3" stroke="#373737" stroke-width="2" stroke-miterlimit="10"/>
<path d="M23.5586 38.3017C23.5586 38.3017 34.507 35.0986 41.1845 26.0144C41.1845 26.0144 41.7213 31.8897 39.8513 33.2229H58.014C58.014 33.2229 59.6185 31.0875 59.0817 26.2799C59.0817 26.2799 67.3637 35.6296 76.4422 37.4995C76.4422 37.4995 75.6399 12.9248 51.071 12.9248C23.8356 12.9248 23.5586 38.296 23.5586 38.296V38.3017Z" fill="#7A6A56" stroke="#373737" stroke-width="2" stroke-linecap="round" stroke-linejoin="round"/>
</g>
<defs>
<clipPath id="clip0_8496_61237">
<rect width="86" height="87" fill="white" transform="translate(7 7.5)"/>
</clipPath>
</defs>
</svg>
