<svg width="51" height="50" viewBox="0 0 51 50" fill="none" xmlns="http://www.w3.org/2000/svg">
<path d="M7.65527 32.9619C14.199 31.1769 21.8545 30.5284 29.2065 31.0166" stroke="white" stroke-width="2" stroke-linecap="round" stroke-linejoin="round"/>
<path d="M24.4756 3C35.5325 3 44.4499 12.1521 44.4499 23.5C44.4499 26.069 43.9929 28.5256 43.1574 30.7889M24.4756 43.9999C26.2828 43.9999 28.0328 43.7554 29.6962 43.2968" stroke="white" stroke-width="2" stroke-linecap="round" stroke-linejoin="round"/>
<path d="M24.4753 43.9999C13.4184 43.9999 4.50098 34.8478 4.50098 23.5C4.50098 12.1521 13.4184 3 24.4753 3" stroke="white" stroke-width="2" stroke-linecap="round" stroke-linejoin="round"/>
<path d="M33.2916 26.4611C33.8777 19.2002 32.3034 11.7712 28.5687 5.4138C26.6765 2.1954 22.2711 2.1954 20.3812 5.4138C13.925 16.4038 13.925 30.5962 20.3812 41.5861C21.4157 43.3478 23.2044 44.1451 24.9217 43.9783" stroke="white" stroke-width="2" stroke-linecap="round" stroke-linejoin="round"/>
<path d="M7.12891 14.0391C17.75 17.5433 31.2022 17.5433 41.8212 14.0391" stroke="white" stroke-width="2" stroke-linecap="round" stroke-linejoin="round"/>
<path fill-rule="evenodd" clip-rule="evenodd" d="M44.2128 40.0022L41.5767 41.11C41.098 41.3111 40.7172 41.6918 40.5158 42.1704L39.4034 44.8141C39.0586 45.6339 38.2353 46.1481 37.3474 46.0984C36.4594 46.0486 35.6987 45.4457 35.4475 44.5925L32.9714 36.1834C32.754 35.445 32.9574 34.6468 33.5016 34.1025C34.0459 33.5581 34.844 33.3546 35.5825 33.5719L43.9915 36.0459C44.845 36.2969 45.4481 37.0578 45.4978 37.946C45.5475 38.8342 45.0329 39.6575 44.2128 40.0022Z" stroke="white" stroke-width="2" stroke-linecap="round" stroke-linejoin="round"/>
</svg>
