<svg width="40" height="40" viewBox="0 0 40 40" fill="none" xmlns="http://www.w3.org/2000/svg">
<path d="M10.666 14.6667V6.13333C10.666 4.95573 11.562 4 12.666 4H28.666C29.77 4 30.666 4.95573 30.666 6.13333V14.6667" stroke="white" stroke-width="2" stroke-linecap="round" stroke-linejoin="round"/>
<path d="M10.6663 28.1029H8.74042C6.85782 28.1029 5.33301 26.7769 5.33301 25.1399V17.7325C5.33301 16.0955 6.85782 14.7695 8.74042 14.7695H32.5923C34.4749 14.7695 35.9997 16.0955 35.9997 17.7325V25.1399C35.9997 26.7769 34.4749 28.1029 32.5923 28.1029H30.6663" stroke="white" stroke-width="2" stroke-linecap="round" stroke-linejoin="round"/>
<path fill-rule="evenodd" clip-rule="evenodd" d="M10.666 24H30.666V34.3333C30.666 35.2533 29.77 36 28.666 36H12.666C11.562 36 10.666 35.2533 10.666 34.3333V24Z" stroke="white" stroke-width="2" stroke-linecap="round" stroke-linejoin="round"/>
<path d="M12 18.668H17.3333" stroke="white" stroke-width="2" stroke-linecap="round" stroke-linejoin="round"/>
</svg>
