<svg width="101" height="101" viewBox="0 0 101 101" fill="none" xmlns="http://www.w3.org/2000/svg">
<g clip-path="url(#clip0_8496_186)">
<path d="M81.1538 25.006H6.50781V80.8517H81.1538V25.006Z" fill="#79BCF2" stroke="#373737" stroke-width="2" stroke-linecap="round" stroke-linejoin="round"/>
<path d="M81.1538 69.7759H6.50781V80.8567H81.1538V69.7759Z" fill="white" stroke="#373737" stroke-width="2" stroke-linecap="round" stroke-linejoin="round"/>
<path d="M57.5562 80.8517H30.1094V91.4904H57.5562V80.8517Z" fill="#DCDDDD" stroke="#373737" stroke-width="2" stroke-linecap="round" stroke-linejoin="round"/>
<path d="M21.1914 91.4954H66.4708" stroke="#373737" stroke-width="2" stroke-linecap="round" stroke-linejoin="round"/>
<path d="M27.5 31.5H12.5V45.5H27.5V31.5Z" fill="#9FDE93" stroke="#373737" stroke-width="2" stroke-linecap="round" stroke-linejoin="round"/>
<path d="M27.5 49.5H12.5V64.5H27.5V49.5Z" fill="white" stroke="#373737" stroke-width="2" stroke-linecap="round" stroke-linejoin="round"/>
<path d="M46.5 31.5H31.5V45.5H46.5V31.5Z" fill="#FF7D73" stroke="#373737" stroke-width="2" stroke-linecap="round" stroke-linejoin="round"/>
<path d="M46.5 49.5H31.5V64.5H46.5V49.5Z" fill="#8086FF" stroke="#373737" stroke-width="2" stroke-linecap="round" stroke-linejoin="round"/>
<path d="M37.6212 57.6221H39.4055V56.3054C39.4055 55.7376 39.4554 54.8799 39.4804 54.3H39.4305C39.1934 54.8195 38.9439 55.3389 38.6818 55.8463L37.6212 57.6221ZM39.4055 61.5V59.253H35.5V57.7671L38.7317 52.5H41.4768V57.6221H42.5V59.253H41.4768V61.5H39.4055Z" fill="#373737"/>
<path d="M19.3868 43C18.0509 43 17.1113 42.522 16.5 41.7876L17.4283 40.4819C17.9377 40.9715 18.5264 41.3212 19.183 41.3212C19.9642 41.3212 20.4736 40.9832 20.4736 40.3303C20.4736 39.5842 20.0887 39.1412 18.3226 39.1412V37.6723C19.7604 37.6723 20.2132 37.2293 20.2132 36.5415C20.2132 35.9469 19.8736 35.6205 19.2509 35.6205C18.6849 35.6205 18.2547 35.8769 17.7453 36.3433L16.7264 35.0725C17.5075 34.3964 18.3453 34 19.3415 34C21.0849 34 22.2283 34.8394 22.2283 36.3899C22.2283 37.2526 21.7755 37.9288 20.8811 38.3018V38.3601C21.8094 38.6516 22.5 39.351 22.5 40.4702C22.5 42.0907 21.0623 43 19.3868 43Z" fill="#373737"/>
<path d="M36.5 43V41.2604H38.517V36.1503H36.7681V34.8215C37.7894 34.6403 38.4532 34.3987 39.117 34H40.7894V41.2604H42.5V43H36.5Z" fill="#373737"/>
<path d="M16.62 61.5V60.2889C19.1 58.2823 20.7667 56.6794 20.7667 55.3971C20.7667 54.5897 20.2733 54.1504 19.4733 54.1504C18.7933 54.1504 18.2733 54.5541 17.7933 55.0053L16.5 53.8654C17.4733 52.9393 18.38 52.5 19.7933 52.5C21.7133 52.5 23.0467 53.5923 23.0467 55.2784C23.0467 56.7982 21.58 58.4723 20.06 59.8377C20.5533 59.7784 21.2333 59.719 21.6867 59.719H23.5V61.5H16.62Z" fill="#373737"/>
</g>
<path d="M94.9177 23.1902L91.6828 19.9655C89.7226 18.0115 86.5431 18.0115 84.5779 19.9655L53.9164 50.5304L50.5 64.2381L64.2511 60.8326L94.9127 30.2676C96.8728 28.3137 96.8728 25.1442 94.9127 23.1852L94.9177 23.1902Z" fill="white" stroke="#373737" stroke-width="2" stroke-linecap="round" stroke-linejoin="round"/>
<path d="M61.7262 57.442L54.3594 50.0984L84.5826 19.9655C86.5427 18.0115 89.7222 18.0115 91.6874 19.9655L94.9224 23.1902C96.8825 25.1442 96.8825 28.3137 94.9224 30.2726L64.6941 60.4056L63.9181 59.6321" fill="#FFD859"/>
<path d="M61.7262 57.442L54.3594 50.0984L84.5826 19.9655C86.5427 18.0115 89.7222 18.0115 91.6874 19.9655L94.9224 23.1902C96.8825 25.1442 96.8825 28.3137 94.9224 30.2726L64.6941 60.4056L63.9181 59.6321" stroke="#373737" stroke-width="2" stroke-linecap="round" stroke-linejoin="round"/>
<path d="M51.7144 59.3809L50.5 64.2432L55.3776 63.0326L51.7144 59.3809Z" fill="#373737"/>
<path d="M83.1644 20.5132L79.9648 23.7027L91.167 34.8696L94.3666 31.6801L83.1644 20.5132Z" fill="white" stroke="#373737" stroke-width="2" stroke-linecap="round" stroke-linejoin="round"/>
<path d="M85.072 29.7804L59.666 55.1063" stroke="#373737" stroke-width="2" stroke-linecap="round" stroke-linejoin="round"/>
<defs>
<clipPath id="clip0_8496_186">
<rect width="81" height="83" fill="white" transform="translate(5.5 9.5)"/>
</clipPath>
</defs>
</svg>
