<svg width="51" height="50" viewBox="0 0 51 50" fill="none" xmlns="http://www.w3.org/2000/svg">
<path d="M18.2173 31.5399C11.2073 31.5399 5.50098 25.8106 5.50098 18.7676C5.50098 11.7247 11.2073 6 18.2173 6C25.2273 6 30.9336 11.7294 30.9336 18.7676C30.9336 25.8059 25.2273 31.5353 18.2173 31.5353V31.5399ZM18.2173 10.658C13.7636 10.658 10.1403 14.2959 10.1403 18.7676C10.1403 23.2393 13.7636 26.8773 18.2173 26.8773C22.671 26.8773 26.2943 23.2393 26.2943 18.7676C26.2943 14.2959 22.671 10.658 18.2173 10.658Z" fill="white"/>
<path d="M32.912 23.7158C31.7244 27.6146 28.9269 30.8053 25.2943 32.5148V43H44.501V23.7158H32.9074H32.912Z" fill="white"/>
</svg>
