<svg width="31" height="30" viewBox="0 0 31 30" fill="none" xmlns="http://www.w3.org/2000/svg">
<path d="M17.665 27.2076L18.3425 26.0626L16.73 25.1076L16.0513 26.2526L17.665 27.2076ZM12.6575 26.0626L13.335 27.2076L14.9475 26.2526L14.2712 25.1076L12.6575 26.0626ZM16.0513 26.2526C15.9928 26.3461 15.9116 26.4232 15.8151 26.4767C15.7187 26.5302 15.6103 26.5582 15.5 26.5582C15.3897 26.5582 15.2813 26.5302 15.1849 26.4767C15.0884 26.4232 15.0072 26.3461 14.9487 26.2526L13.335 27.2076C14.3012 28.8414 16.6975 28.8414 17.665 27.2076L16.0513 26.2526ZM13.625 3.43262H17.375V1.55762H13.625V3.43262ZM27.0625 13.1201V14.3701H28.9375V13.1201H27.0625ZM3.9375 14.3701V13.1201H2.0625V14.3701H3.9375ZM2.0625 14.3701C2.0625 15.8139 2.0625 16.9426 2.125 17.8539C2.1875 18.7726 2.31625 19.5376 2.61 20.2451L4.3425 19.5276C4.15875 19.0876 4.05125 18.5501 3.995 17.7264C3.9375 16.8939 3.9375 15.8389 3.9375 14.3701H2.0625ZM10.2537 22.7976C8.68375 22.7701 7.86125 22.6701 7.21625 22.4026L6.5 24.1351C7.50625 24.5526 8.65125 24.6464 10.2212 24.6739L10.2537 22.7976ZM2.61 20.2451C2.97121 21.1172 3.50065 21.9096 4.1681 22.577C4.83555 23.2445 5.62793 23.7739 6.5 24.1351L7.21625 22.4026C5.9146 21.8634 4.88168 20.8293 4.3425 19.5276L2.61 20.2451ZM27.0625 14.3701C27.0625 15.8389 27.0625 16.8939 27.005 17.7264C26.9488 18.5501 26.8412 19.0876 26.6588 19.5276L28.39 20.2451C28.6838 19.5376 28.8125 18.7726 28.8763 17.8539C28.9388 16.9426 28.9375 15.8139 28.9375 14.3701H27.0625ZM20.7787 24.6714C22.3487 24.6451 23.4938 24.5526 24.5 24.1351L23.7825 22.4026C23.1388 22.6701 22.3162 22.7701 20.7475 22.7976L20.7787 24.6714ZM26.6588 19.5276C26.1196 20.8293 25.0854 21.8634 23.7838 22.4026L24.5 24.1351C25.3721 23.7739 26.1645 23.2445 26.8319 22.577C27.4993 21.9096 28.0288 21.1172 28.39 20.2451L26.6588 19.5276ZM17.375 3.43262C19.4387 3.43262 20.9212 3.43262 22.0775 3.54387C23.22 3.65262 23.9463 3.86012 24.5263 4.21512L25.505 2.61637C24.5812 2.05137 23.5337 1.79887 22.255 1.67637C20.99 1.55637 19.4025 1.55762 17.375 1.55762V3.43262ZM28.9375 13.1201C28.9375 11.0926 28.9375 9.50637 28.8175 8.24012C28.6962 6.96137 28.4438 5.91262 27.8787 4.99012L26.2787 5.96887C26.635 6.54887 26.8425 7.27512 26.9512 8.41887C27.0612 9.57387 27.0625 11.0564 27.0625 13.1201H28.9375ZM24.525 4.21512C25.2402 4.65299 25.8416 5.25396 26.28 5.96887L27.8787 4.99012C27.286 4.02259 26.4725 3.20915 25.505 2.61637L24.525 4.21512ZM13.625 1.55762C11.5975 1.55762 10.0113 1.55762 8.745 1.67637C7.46625 1.79887 6.4175 2.05137 5.495 2.61637L6.47375 4.21637C7.05375 3.86012 7.78 3.65262 8.92375 3.54387C10.0787 3.43387 11.5612 3.43262 13.625 3.43262V1.55762ZM3.9375 13.1201C3.9375 11.0564 3.9375 9.57387 4.04875 8.41762C4.1575 7.27512 4.365 6.54887 4.72 5.96887L3.12125 4.99137C2.55625 5.91387 2.30375 6.96137 2.18125 8.24012C2.0625 9.50762 2.0625 11.0926 2.0625 13.1201H3.9375ZM5.495 2.61637C4.52747 3.20915 3.71404 4.02384 3.12125 4.99137L4.72125 5.96887C5.15892 5.25425 5.75944 4.6533 6.47375 4.21512L5.495 2.61637ZM14.27 25.1076C14.0175 24.6789 13.795 24.3001 13.5775 24.0026C13.3538 23.6764 13.0632 23.4016 12.725 23.1964L11.7825 24.8176C11.8413 24.8526 11.9225 24.9151 12.0625 25.1076C12.2137 25.3151 12.385 25.6026 12.6575 26.0626L14.27 25.1076ZM10.2212 24.6714C10.7712 24.6814 11.1175 24.6889 11.3825 24.7176C11.63 24.7451 11.7262 24.7851 11.7825 24.8176L12.725 23.1964C12.375 23.0025 11.9876 22.8857 11.5888 22.8539C11.2163 22.8126 10.7688 22.8064 10.2537 22.7976L10.2212 24.6714ZM18.3425 26.0626C18.615 25.6039 18.7862 25.3151 18.9375 25.1076C19.0775 24.9151 19.1588 24.8526 19.2175 24.8176L18.275 23.1964C17.9125 23.4089 17.65 23.6901 17.4225 24.0026C17.2063 24.3001 16.9825 24.6776 16.7288 25.1076L18.3425 26.0626ZM20.7475 22.7976C20.2325 22.8064 19.7838 22.8126 19.4112 22.8539C19.0225 22.8976 18.6413 22.9839 18.275 23.1964L19.2175 24.8176C19.2738 24.7851 19.37 24.7451 19.6175 24.7176C19.8825 24.6889 20.23 24.6801 20.78 24.6714L20.7475 22.7976Z" fill="#171717"/>
<path d="M10.5 13.7451H10.5112M15.4888 13.7451H15.5M20.4888 13.7451H20.5" stroke="#171717" stroke-width="2.5" stroke-linecap="round" stroke-linejoin="round"/>
</svg>
