<svg width="51" height="50" viewBox="0 0 51 50" fill="none" xmlns="http://www.w3.org/2000/svg">
<path d="M50.0683 39.0844L34.2992 20.8061C34.011 20.4713 33.6112 20.2797 33.1943 20.278C32.7589 20.2383 32.3745 20.4609 32.0832 20.7923L22.0431 32.1714L16.6256 26.0021C16.0429 25.3394 14.9954 25.3394 14.4158 26.0021L2.9423 39.074C2.5084 39.5693 2.38133 40.3062 2.62307 40.9447C2.86481 41.5832 3.42578 41.9991 4.04719 41.9991H48.9557C49.574 41.9991 50.1349 41.5866 50.3767 40.9533C50.62 40.3183 50.4991 39.5831 50.0683 39.0861V39.0844ZM15.5222 29.6674L22.1423 37.2069L23.3278 38.5563H7.71828L15.5222 29.6674ZM27.6497 38.5563L24.2064 34.6339L33.1742 24.4697L45.328 38.5563H27.6513H27.6497Z" fill="white"/>
<path d="M16.5332 22.3687C13.7191 22.3687 11.4287 19.8199 11.4287 16.6844C11.4287 13.5488 13.7191 11 16.5332 11C19.3474 11 21.6377 13.5505 21.6377 16.6844C21.6377 19.8182 19.3489 22.3687 16.5332 22.3687ZM16.5332 14.4427C15.4221 14.4427 14.5202 15.4488 14.5202 16.6861C14.5202 17.9234 15.4221 18.9277 16.5332 18.9277C17.6443 18.9277 18.5462 17.9217 18.5462 16.6861C18.5462 15.4505 17.6443 14.4427 16.5332 14.4427Z" fill="white"/>
</svg>
