<svg width="34" height="34" viewBox="0 0 34 34" fill="none" xmlns="http://www.w3.org/2000/svg">
<path d="M33.6673 16.9997C33.6673 26.2044 26.2054 33.6663 17.0007 33.6663C7.7959 33.6663 0.333984 26.2044 0.333984 16.9997C0.333984 7.79493 7.7959 0.333008 17.0007 0.333008C26.2054 0.333008 33.6673 7.79493 33.6673 16.9997Z" fill="#FFC81C"/>
<g filter="url(#filter0_b_9875_87024)">
<path d="M29.5013 18.25C29.5013 18.9404 28.1955 19.5 26.5846 19.5C24.9738 19.5 23.668 18.9404 23.668 18.25C23.668 17.5596 24.9738 17 26.5846 17C28.1955 17 29.5013 17.5596 29.5013 18.25Z" fill="#FF8A93" fill-opacity="0.5"/>
</g>
<g filter="url(#filter1_b_9875_87024)">
<path d="M10.3333 18.25C10.3333 18.9404 9.0275 19.5 7.41667 19.5C5.80584 19.5 4.5 18.9404 4.5 18.25C4.5 17.5596 5.80584 17 7.41667 17C9.0275 17 10.3333 17.5596 10.3333 18.25Z" fill="#FF8A93" fill-opacity="0.5"/>
</g>
<path d="M22.0014 17.833C22.8119 17.833 23.2171 17.833 23.4673 18.1552C23.7175 18.4773 23.632 18.8123 23.4608 19.4824C23.1671 20.6324 22.569 21.6935 21.7155 22.5471C20.4652 23.7973 18.7695 24.4997 17.0014 24.4997C15.2333 24.4997 13.5376 23.7973 12.2874 22.5471C11.4339 21.6935 10.8357 20.6324 10.542 19.4824C10.3709 18.8123 10.2853 18.4773 10.5355 18.1552C10.7857 17.833 11.191 17.833 12.0014 17.833L17.0014 17.833H22.0014Z" fill="#EE3538"/>
<mask id="mask0_9875_87024" style="mask-type:alpha" maskUnits="userSpaceOnUse" x="13" y="22" width="8" height="4">
<path d="M18.6658 25.333C19.4668 25.333 19.8672 25.333 20.1094 24.9248C20.3515 24.5167 20.2091 24.2561 19.9244 23.7349C19.7735 23.4586 19.5828 23.2026 19.3562 22.976C18.7311 22.3509 17.8832 21.9997 16.9992 21.9997C16.1151 21.9997 15.2673 22.3509 14.6421 22.976C14.4155 23.2026 14.2248 23.4586 14.0739 23.7349C13.7892 24.2561 13.6468 24.5167 13.889 24.9248C14.1311 25.333 14.5316 25.333 15.3325 25.333L16.9992 25.333H18.6658Z" fill="#FC5255"/>
</mask>
<g mask="url(#mask0_9875_87024)">
<path d="M21.9545 17.833C22.765 17.833 23.1702 17.833 23.4204 18.1552C23.6706 18.4773 23.5851 18.8123 23.414 19.4824C23.1203 20.6324 22.5221 21.6935 21.6686 22.5471C20.4183 23.7973 18.7226 24.4997 16.9545 24.4997C15.1864 24.4997 13.4907 23.7973 12.2405 22.5471C11.387 21.6935 10.7888 20.6324 10.4951 19.4824C10.324 18.8123 10.2384 18.4773 10.4886 18.1552C10.7389 17.833 11.1441 17.833 11.9545 17.833L16.9545 17.833H21.9545Z" fill="#FC5255"/>
</g>
<path fill-rule="evenodd" clip-rule="evenodd" d="M22.942 13.0623C22.8035 13.2546 22.75 13.5079 22.75 13.6657C22.75 14.0799 22.4142 14.4157 22 14.4157C21.5858 14.4157 21.25 14.0799 21.25 13.6657C21.25 13.2679 21.3632 12.6879 21.7247 12.1858C22.1137 11.6455 22.7556 11.249 23.6667 11.249C24.5778 11.249 25.2196 11.6455 25.6087 12.1858C25.9702 12.6879 26.0833 13.2679 26.0833 13.6657C26.0833 14.0799 25.7475 14.4157 25.3333 14.4157C24.9191 14.4157 24.5833 14.0799 24.5833 13.6657C24.5833 13.5079 24.5298 13.2546 24.3913 13.0623C24.2804 12.9082 24.0889 12.749 23.6667 12.749C23.2444 12.749 23.0529 12.9082 22.942 13.0623Z" fill="#312C26"/>
<path fill-rule="evenodd" clip-rule="evenodd" d="M9.60995 13.0623C9.47147 13.2546 9.41797 13.5079 9.41797 13.6657C9.41797 14.0799 9.08218 14.4157 8.66797 14.4157C8.25376 14.4157 7.91797 14.0799 7.91797 13.6657C7.91797 13.2679 8.03114 12.6879 8.39265 12.1858C8.7817 11.6455 9.42353 11.249 10.3346 11.249C11.2457 11.249 11.8876 11.6455 12.2766 12.1858C12.6381 12.6879 12.7513 13.2679 12.7513 13.6657C12.7513 14.0799 12.4155 14.4157 12.0013 14.4157C11.5871 14.4157 11.2513 14.0799 11.2513 13.6657C11.2513 13.5079 11.1978 13.2546 11.0593 13.0623C10.9484 12.9082 10.7569 12.749 10.3346 12.749C9.91241 12.749 9.7209 12.9082 9.60995 13.0623Z" fill="#312C26"/>
<defs>
<filter id="filter0_b_9875_87024" x="19.668" y="13" width="13.834" height="10.5" filterUnits="userSpaceOnUse" color-interpolation-filters="sRGB">
<feFlood flood-opacity="0" result="BackgroundImageFix"/>
<feGaussianBlur in="BackgroundImageFix" stdDeviation="2"/>
<feComposite in2="SourceAlpha" operator="in" result="effect1_backgroundBlur_9875_87024"/>
<feBlend mode="normal" in="SourceGraphic" in2="effect1_backgroundBlur_9875_87024" result="shape"/>
</filter>
<filter id="filter1_b_9875_87024" x="0.5" y="13" width="13.834" height="10.5" filterUnits="userSpaceOnUse" color-interpolation-filters="sRGB">
<feFlood flood-opacity="0" result="BackgroundImageFix"/>
<feGaussianBlur in="BackgroundImageFix" stdDeviation="2"/>
<feComposite in2="SourceAlpha" operator="in" result="effect1_backgroundBlur_9875_87024"/>
<feBlend mode="normal" in="SourceGraphic" in2="effect1_backgroundBlur_9875_87024" result="shape"/>
</filter>
</defs>
</svg>
