<svg width="34" height="34" viewBox="0 0 34 34" fill="none" xmlns="http://www.w3.org/2000/svg">
<path d="M33.6673 16.9997C33.6673 26.2044 26.2054 33.6663 17.0007 33.6663C7.7959 33.6663 0.333984 26.2044 0.333984 16.9997C0.333984 7.79493 7.7959 0.333008 17.0007 0.333008C26.2054 0.333008 33.6673 7.79493 33.6673 16.9997Z" fill="#FFC81C"/>
<path d="M24.5013 13.6667C24.5013 14.5871 23.7551 15.3333 22.8346 15.3333C21.9142 15.3333 21.168 14.5871 21.168 13.6667C21.168 12.7462 21.9142 12 22.8346 12C23.7551 12 24.5013 12.7462 24.5013 13.6667Z" fill="#312C26"/>
<circle cx="11.1667" cy="13.6667" r="1.66667" fill="#312C26"/>
<path fill-rule="evenodd" clip-rule="evenodd" d="M11.168 21.9993C11.168 21.5391 11.5411 21.166 12.0013 21.166H22.0013C22.4615 21.166 22.8346 21.5391 22.8346 21.9993C22.8346 22.4596 22.4615 22.8327 22.0013 22.8327H12.0013C11.5411 22.8327 11.168 22.4596 11.168 21.9993Z" fill="#312C26"/>
</svg>
