<svg width="7" height="23" viewBox="0 0 7 23" fill="none" xmlns="http://www.w3.org/2000/svg">
<g clip-path="url(#clip0_9136_101354)">
<path d="M4.0963 16.3102H2.85185C2.59259 16.3102 2.43704 16.2853 2.38519 16.2232C2.33333 16.161 2.29444 15.9621 2.29444 15.6266C2.29444 15.1169 1.86667 12.7305 0.998148 8.46723C0.337037 5.1113 0 3.28418 0 3.01073C0 2.31469 0.311111 1.73051 0.946296 1.23333C1.58148 0.736158 2.46296 0.5 3.61667 0.5C4.77037 0.5 5.54815 0.761017 6.13148 1.29548C6.71481 1.81751 7 2.43898 7 3.13503C7 3.61977 6.53333 6.08079 5.6 10.5181C4.99074 13.4266 4.67963 15.0921 4.66667 15.5271C4.66667 15.9249 4.64074 16.161 4.57593 16.2232C4.51111 16.2853 4.35556 16.3102 4.0963 16.3102Z" fill="#42C5B1"/>
<path d="M0.725586 19.9893C0.725586 19.2062 0.971882 18.5972 1.45151 18.1497C1.93114 17.7022 2.61818 17.4785 3.49966 17.4785C4.38114 17.4785 5.06818 17.7022 5.54781 18.1621C6.02744 18.622 6.27373 19.2311 6.27373 19.9893C6.27373 20.7474 6.02744 21.3565 5.54781 21.8164C5.06818 22.2763 4.38114 22.5 3.49966 22.5C2.61818 22.5 1.93114 22.2763 1.45151 21.8288C0.971882 21.3813 0.725586 20.7723 0.725586 19.9893Z" fill="#42C5B1"/>
</g>
<defs>
<clipPath id="clip0_9136_101354">
<rect width="7" height="22" fill="white" transform="translate(0 0.5)"/>
</clipPath>
</defs>
</svg>
