<svg width="51" height="50" viewBox="0 0 51 50" fill="none" xmlns="http://www.w3.org/2000/svg">
<path d="M42.3062 14.8612H28.3645V8.19739C28.3645 8.08882 28.2768 8 28.1697 8H22.8303C22.7232 8 22.6355 8.08882 22.6355 8.19739V14.8612H8.69577C8.58864 14.8612 8.50098 14.95 8.50098 15.0586V20.469C8.50098 20.5775 8.58864 20.6664 8.69577 20.6664H15.2488C13.2151 22.9284 11.9801 25.8794 11.9801 29.1106C11.9801 36.2304 17.9584 42.002 25.3354 42.002C32.7124 42.002 38.6907 36.2304 38.6907 29.1106C38.6907 25.8794 37.4577 22.9304 35.422 20.6664H42.3062C42.4133 20.6664 42.501 20.5775 42.501 20.469V15.0586C42.501 14.95 42.4133 14.8612 42.3062 14.8612ZM25.3354 35.8573C21.083 35.8573 17.635 32.3635 17.635 28.0546C17.635 23.7456 21.083 20.2518 25.3354 20.2518C29.5878 20.2518 33.0358 23.7456 33.0358 28.0546C33.0358 32.3635 29.5878 35.8573 25.3354 35.8573Z" fill="white"/>
</svg>
