<svg width="34" height="34" viewBox="0 0 34 34" fill="none" xmlns="http://www.w3.org/2000/svg">
<path d="M33.6673 17.3327C33.6673 26.5374 26.2054 33.9993 17.0007 33.9993C7.7959 33.9993 0.333984 26.5374 0.333984 17.3327C0.333984 8.12794 7.7959 0.666016 17.0007 0.666016C26.2054 0.666016 33.6673 8.12794 33.6673 17.3327Z" fill="#FFC81C"/>
<path fill-rule="evenodd" clip-rule="evenodd" d="M22.942 14.6038C22.8035 14.4114 22.75 14.1581 22.75 14.0003C22.75 13.5861 22.4142 13.2503 22 13.2503C21.5858 13.2503 21.25 13.5861 21.25 14.0003C21.25 14.3981 21.3632 14.9781 21.7247 15.4802C22.1137 16.0206 22.7556 16.417 23.6667 16.417C24.5778 16.417 25.2196 16.0206 25.6087 15.4802C25.9702 14.9781 26.0833 14.3981 26.0833 14.0003C26.0833 13.5861 25.7475 13.2503 25.3333 13.2503C24.9191 13.2503 24.5833 13.5861 24.5833 14.0003C24.5833 14.1581 24.5298 14.4114 24.3913 14.6038C24.2804 14.7579 24.0889 14.917 23.6667 14.917C23.2444 14.917 23.0529 14.7579 22.942 14.6038Z" fill="#422B0D"/>
<path fill-rule="evenodd" clip-rule="evenodd" d="M9.60995 14.6038C9.47147 14.4114 9.41797 14.1581 9.41797 14.0003C9.41797 13.5861 9.08218 13.2503 8.66797 13.2503C8.25376 13.2503 7.91797 13.5861 7.91797 14.0003C7.91797 14.3981 8.03114 14.9781 8.39265 15.4802C8.7817 16.0206 9.42353 16.417 10.3346 16.417C11.2457 16.417 11.8876 16.0206 12.2766 15.4802C12.6381 14.9781 12.7513 14.3981 12.7513 14.0003C12.7513 13.5861 12.4155 13.2503 12.0013 13.2503C11.5871 13.2503 11.2513 13.5861 11.2513 14.0003C11.2513 14.1581 11.1978 14.4114 11.0593 14.6038C10.9484 14.7579 10.7569 14.917 10.3346 14.917C9.91241 14.917 9.7209 14.7579 9.60995 14.6038Z" fill="#422B0D"/>
<path fill-rule="evenodd" clip-rule="evenodd" d="M16.28 22.6651C14.95 22.9156 13.8399 23.782 13.2712 24.49C13.0242 24.7976 12.5746 24.8467 12.267 24.5997C11.9595 24.3526 11.9104 23.9031 12.1574 23.5955C12.8874 22.6865 14.2773 21.5886 16.0155 21.2612C17.814 20.9224 19.8763 21.4305 21.8142 23.5623C22.0796 23.8542 22.0581 24.3059 21.7662 24.5713C21.4743 24.8366 21.0225 24.8151 20.7572 24.5232C19.1237 22.7264 17.5497 22.4259 16.28 22.6651Z" fill="#422B0D"/>
</svg>
