<svg xmlns="http://www.w3.org/2000/svg" width="51" height="50" viewBox="0 0 51 50" fill="none">
<path fill-rule="evenodd" clip-rule="evenodd" d="M25.501 5C36.5475 5 45.501 13.9534 45.501 25C45.501 36.0466 36.5475 45 25.501 45C14.4544 45 5.50098 36.0466 5.50098 25C5.50098 13.9534 14.4544 5 25.501 5ZM23.7709 17.1443L33.6141 22.8214C34.4247 23.2872 34.9127 24.1133 34.9127 25.0009C34.9127 25.8885 34.4247 26.7145 33.6141 27.1803L23.7709 32.8574C23.3408 33.1123 22.8445 33.2353 22.3482 33.2353C21.885 33.2353 21.4301 33.1298 21.0165 32.9101C20.1563 32.4619 19.6186 31.6007 19.6186 30.678V19.3238C19.6186 18.401 20.1563 17.5398 21.0165 17.0916C21.8768 16.6346 22.9272 16.661 23.7709 17.1443Z" fill="white"/>
</svg>