<svg width="34" height="34" viewBox="0 0 34 34" fill="none" xmlns="http://www.w3.org/2000/svg">
<path d="M33.6673 16.9997C33.6673 26.2044 26.2054 33.6663 17.0007 33.6663C7.7959 33.6663 0.333984 26.2044 0.333984 16.9997C0.333984 7.79493 7.7959 0.333008 17.0007 0.333008C26.2054 0.333008 33.6673 7.79493 33.6673 16.9997Z" fill="#FFC81C"/>
<path fill-rule="evenodd" clip-rule="evenodd" d="M13.334 24.4993C13.334 24.0391 13.7071 23.666 14.1673 23.666H20.834C21.2942 23.666 21.6673 24.0391 21.6673 24.4993C21.6673 24.9596 21.2942 25.3327 20.834 25.3327H14.1673C13.7071 25.3327 13.334 24.9596 13.334 24.4993Z" fill="#312C26"/>
<circle cx="11.5846" cy="16.5827" r="2.91667" fill="#312C26"/>
<circle cx="12.3449" cy="15.9514" r="1.20821" fill="white"/>
<circle cx="10.4416" cy="18.2483" r="0.693577" fill="white"/>
<circle cx="23.2507" cy="16.5827" r="2.91667" fill="#312C26"/>
<circle cx="24.0109" cy="15.9514" r="1.20821" fill="white"/>
<circle cx="22.1076" cy="18.2483" r="0.693577" fill="white"/>
<path fill-rule="evenodd" clip-rule="evenodd" d="M12.1928 9.78322C12.4963 9.99168 12.5734 10.4067 12.3649 10.7102C11.6401 11.7655 10.5722 12.2168 9.58114 12.4128C8.77705 12.5718 7.95362 12.5732 7.35311 12.5742C7.22875 12.5744 7.11394 12.5746 7.01085 12.5762C6.6427 12.5818 6.33969 12.288 6.33406 11.9198C6.32843 11.5517 6.62231 11.2487 6.99046 11.243C7.12094 11.241 7.25563 11.2406 7.39374 11.2402C7.99385 11.2382 8.65851 11.2361 9.32249 11.1048C10.1188 10.9473 10.8092 10.6201 11.2659 9.95529C11.4743 9.6518 11.8893 9.57476 12.1928 9.78322Z" fill="#312C26"/>
<path fill-rule="evenodd" clip-rule="evenodd" d="M22.5142 9.78322C22.2107 9.99168 22.1337 10.4067 22.3421 10.7102C23.067 11.7655 24.1348 12.2168 25.1259 12.4128C25.93 12.5718 26.7534 12.5732 27.3539 12.5742C27.4783 12.5744 27.5931 12.5746 27.6962 12.5762C28.0643 12.5818 28.3673 12.288 28.373 11.9198C28.3786 11.5517 28.0847 11.2487 27.7166 11.243C27.5861 11.241 27.4514 11.2406 27.3133 11.2402C26.7132 11.2382 26.0485 11.2361 25.3845 11.1048C24.5882 10.9473 23.8978 10.6201 23.4412 9.95529C23.2327 9.6518 22.8177 9.57476 22.5142 9.78322Z" fill="#312C26"/>
</svg>
