<svg width="17" height="24" viewBox="0 0 17 24" fill="none" xmlns="http://www.w3.org/2000/svg">
<g clip-path="url(#clip0_9136_6109)">
<path d="M5.1265 16.9172V15.3046C5.1265 14.2868 5.25042 13.4408 5.4845 12.7931C5.71858 12.1454 6.22804 11.5902 6.99913 11.154C7.60498 10.7971 8.14199 10.4799 8.62391 10.2023C9.10584 9.92471 9.49138 9.66035 9.78054 9.40919C10.2212 9.02586 10.5103 8.66897 10.6618 8.33851C10.8132 8.00805 10.8821 7.62471 10.8821 7.16207C10.8821 6.5408 10.6618 6.06494 10.2212 5.70805C9.78054 5.35115 9.24354 5.17931 8.62391 5.17931C8.00429 5.17931 7.41221 5.32471 6.90274 5.61552C6.39328 5.90632 6.06281 6.32931 5.89758 6.87126C5.69104 7.50575 5.33304 7.99483 4.79603 8.32529C4.25903 8.65575 3.61187 8.80115 2.84078 8.74828C2.52409 8.73506 2.22116 8.66897 1.932 8.55C1.64285 8.43103 1.38123 8.27241 1.17469 8.06092C0.968149 7.84943 0.789147 7.58506 0.665223 7.28103C0.541298 6.97701 0.486221 6.62012 0.49999 6.21035C0.51376 5.40402 0.747839 4.65057 1.18846 3.95C1.62908 3.24943 2.22116 2.6546 2.95094 2.13908C3.68071 1.62356 4.53441 1.22701 5.51204 0.936207C6.48966 0.645402 7.52237 0.5 8.62391 0.5C9.72546 0.5 10.8132 0.632184 11.7771 0.90977C12.741 1.18736 13.5671 1.59713 14.2694 2.13908C14.9716 2.68103 15.5086 3.38161 15.9079 4.21437C16.3072 5.04713 16.5 6.03851 16.5 7.16207C16.5 8.06092 16.3898 8.84081 16.1695 9.48851C15.9492 10.1362 15.5912 10.7443 15.0955 11.3126C14.6687 11.7753 14.1592 12.2247 13.5396 12.6874C12.92 13.15 12.2728 13.5862 11.5981 14.0092C11.2126 14.2603 10.9647 14.5115 10.8546 14.7891C10.7444 15.0667 10.6893 15.3707 10.6893 15.7276V16.9172H5.1265ZM4.96126 20.8299C4.96126 19.9971 5.22288 19.3494 5.73235 18.8736C6.24181 18.3977 6.97159 18.1598 7.90791 18.1598C8.84422 18.1598 9.574 18.3977 10.0835 18.8868C10.5929 19.3759 10.8546 20.0236 10.8546 20.8299C10.8546 21.6362 10.5929 22.2839 10.0835 22.773C9.574 23.2621 8.84422 23.5 7.90791 23.5C6.97159 23.5 6.24181 23.2621 5.73235 22.7862C5.22288 22.3103 4.96126 21.6626 4.96126 20.8299Z" fill="#FF8D00"/>
</g>
<defs>
<clipPath id="clip0_9136_6109">
<rect width="16" height="23" fill="white" transform="translate(0.5 0.5)"/>
</clipPath>
</defs>
</svg>
